<mxfile host="65bd71144e">
    <diagram id="Vw_G5lVdU39Mw11DK7T_" name="Page-1">
        <mxGraphModel dx="3140" dy="1328" grid="1" gridSize="10" guides="1" tooltips="1" connect="1" arrows="1" fold="1" page="1" pageScale="1" pageWidth="1920" pageHeight="1200" math="0" shadow="0">
            <root>
                <mxCell id="0"/>
                <mxCell id="1" parent="0"/>
                <mxCell id="10" value="" style="edgeStyle=none;html=1;" parent="1" source="2" target="9" edge="1">
                    <mxGeometry relative="1" as="geometry"/>
                </mxCell>
                <mxCell id="2" value="" style="shape=ext;double=1;rounded=0;whiteSpace=wrap;html=1;rotation=90;gradientColor=none;fillColor=light-dark(#cd7f32, #ededed);" parent="1" vertex="1">
                    <mxGeometry x="-468.12" y="-44.37" width="1101.25" height="1275" as="geometry"/>
                </mxCell>
                <mxCell id="6" value="" style="edgeStyle=none;html=1;" parent="1" source="3" target="5" edge="1">
                    <mxGeometry relative="1" as="geometry"/>
                </mxCell>
                <mxCell id="3" value="" style="shape=ext;double=1;rounded=0;whiteSpace=wrap;html=1;rotation=90;fillColor=#C0C0C0;" parent="1" vertex="1">
                    <mxGeometry x="1225" y="-65" width="1100" height="1320" as="geometry"/>
                </mxCell>
                <mxCell id="4" value="" style="shape=ext;double=1;rounded=0;whiteSpace=wrap;html=1;rotation=90;fillColor=light-dark(#FBC901,#6E6E6E);" parent="1" vertex="1">
                    <mxGeometry x="3000" y="-280" width="1120" height="1750" as="geometry"/>
                </mxCell>
                <mxCell id="5" value="" style="shape=singleArrow;whiteSpace=wrap;html=1;arrowWidth=0.36000162760416665;arrowSize=1;rounded=0;" parent="1" vertex="1">
                    <mxGeometry x="2600" y="560" width="80" height="60" as="geometry"/>
                </mxCell>
                <mxCell id="9" value="" style="shape=singleArrow;whiteSpace=wrap;html=1;arrowWidth=0.0066650390625;arrowSize=1;rounded=0;" parent="1" vertex="1">
                    <mxGeometry x="1040" y="575" width="60" height="60" as="geometry"/>
                </mxCell>
                <mxCell id="206" value="" style="shape=ext;double=1;rounded=1;whiteSpace=wrap;html=1;fillColor=none;" parent="1" vertex="1">
                    <mxGeometry x="-430" y="110" width="300" height="820" as="geometry"/>
                </mxCell>
                <mxCell id="11" value="Log system" style="shape=table;startSize=30;container=1;collapsible=1;childLayout=tableLayout;fixedRows=1;rowLines=0;fontStyle=1;align=center;resizeLast=1;html=1;strokeColor=#FFFFFF;fontColor=#1A1A1A;" parent="1" vertex="1">
                    <mxGeometry x="-408.12" y="130" width="248.12" height="280" as="geometry"/>
                </mxCell>
                <mxCell id="12" value="" style="shape=tableRow;horizontal=0;startSize=0;swimlaneHead=0;swimlaneBody=0;fillColor=none;collapsible=0;dropTarget=0;points=[[0,0.5],[1,0.5]];portConstraint=eastwest;top=0;left=0;right=0;bottom=1;strokeColor=#FFFFFF;fontColor=#FFFFFF;" parent="11" vertex="1">
                    <mxGeometry y="30" width="248.12" height="40" as="geometry"/>
                </mxCell>
                <mxCell id="13" value="" style="shape=partialRectangle;connectable=0;fillColor=none;top=0;left=0;bottom=0;right=0;fontStyle=1;overflow=hidden;whiteSpace=wrap;html=1;strokeColor=#FFFFFF;fontColor=#FFFFFF;" parent="12" vertex="1">
                    <mxGeometry width="30" height="40" as="geometry">
                        <mxRectangle width="30" height="40" as="alternateBounds"/>
                    </mxGeometry>
                </mxCell>
                <mxCell id="14" value="Log id&lt;span style=&quot;white-space: pre;&quot;&gt;&#x9;&lt;/span&gt;" style="shape=partialRectangle;connectable=0;fillColor=none;top=0;left=0;bottom=0;right=0;align=left;spacingLeft=6;fontStyle=5;overflow=hidden;whiteSpace=wrap;html=1;strokeColor=#FFFFFF;fontColor=#FFFFFF;" parent="12" vertex="1">
                    <mxGeometry x="30" width="218.12" height="40" as="geometry">
                        <mxRectangle width="218.12" height="40" as="alternateBounds"/>
                    </mxGeometry>
                </mxCell>
                <mxCell id="15" value="" style="shape=tableRow;horizontal=0;startSize=0;swimlaneHead=0;swimlaneBody=0;fillColor=none;collapsible=0;dropTarget=0;points=[[0,0.5],[1,0.5]];portConstraint=eastwest;top=0;left=0;right=0;bottom=0;strokeColor=#FFFFFF;fontColor=#FFFFFF;" parent="11" vertex="1">
                    <mxGeometry y="70" width="248.12" height="30" as="geometry"/>
                </mxCell>
                <mxCell id="16" value="" style="shape=partialRectangle;connectable=0;fillColor=none;top=0;left=0;bottom=0;right=0;editable=1;overflow=hidden;whiteSpace=wrap;html=1;strokeColor=#FFFFFF;fontColor=#FFFFFF;" parent="15" vertex="1">
                    <mxGeometry width="30" height="30" as="geometry">
                        <mxRectangle width="30" height="30" as="alternateBounds"/>
                    </mxGeometry>
                </mxCell>
                <mxCell id="17" value="user_id&lt;span style=&quot;white-space: pre;&quot;&gt;&#x9;&lt;/span&gt;" style="shape=partialRectangle;connectable=0;fillColor=none;top=0;left=0;bottom=0;right=0;align=left;spacingLeft=6;overflow=hidden;whiteSpace=wrap;html=1;strokeColor=#FFFFFF;fontColor=#FFFFFF;" parent="15" vertex="1">
                    <mxGeometry x="30" width="218.12" height="30" as="geometry">
                        <mxRectangle width="218.12" height="30" as="alternateBounds"/>
                    </mxGeometry>
                </mxCell>
                <mxCell id="18" value="" style="shape=tableRow;horizontal=0;startSize=0;swimlaneHead=0;swimlaneBody=0;fillColor=none;collapsible=0;dropTarget=0;points=[[0,0.5],[1,0.5]];portConstraint=eastwest;top=0;left=0;right=0;bottom=0;strokeColor=#FFFFFF;fontColor=#FFFFFF;" parent="11" vertex="1">
                    <mxGeometry y="100" width="248.12" height="30" as="geometry"/>
                </mxCell>
                <mxCell id="19" value="" style="shape=partialRectangle;connectable=0;fillColor=none;top=0;left=0;bottom=0;right=0;editable=1;overflow=hidden;whiteSpace=wrap;html=1;strokeColor=#FFFFFF;fontColor=#FFFFFF;" parent="18" vertex="1">
                    <mxGeometry width="30" height="30" as="geometry">
                        <mxRectangle width="30" height="30" as="alternateBounds"/>
                    </mxGeometry>
                </mxCell>
                <mxCell id="20" value="title_const&lt;span style=&quot;white-space: pre;&quot;&gt;&#x9;&lt;/span&gt;" style="shape=partialRectangle;connectable=0;fillColor=none;top=0;left=0;bottom=0;right=0;align=left;spacingLeft=6;overflow=hidden;whiteSpace=wrap;html=1;strokeColor=#FFFFFF;fontColor=#FFFFFF;" parent="18" vertex="1">
                    <mxGeometry x="30" width="218.12" height="30" as="geometry">
                        <mxRectangle width="218.12" height="30" as="alternateBounds"/>
                    </mxGeometry>
                </mxCell>
                <mxCell id="21" value="" style="shape=tableRow;horizontal=0;startSize=0;swimlaneHead=0;swimlaneBody=0;fillColor=none;collapsible=0;dropTarget=0;points=[[0,0.5],[1,0.5]];portConstraint=eastwest;top=0;left=0;right=0;bottom=0;strokeColor=#FFFFFF;fontColor=#FFFFFF;" parent="11" vertex="1">
                    <mxGeometry y="130" width="248.12" height="30" as="geometry"/>
                </mxCell>
                <mxCell id="22" value="" style="shape=partialRectangle;connectable=0;fillColor=none;top=0;left=0;bottom=0;right=0;editable=1;overflow=hidden;whiteSpace=wrap;html=1;strokeColor=#FFFFFF;fontColor=#FFFFFF;" parent="21" vertex="1">
                    <mxGeometry width="30" height="30" as="geometry">
                        <mxRectangle width="30" height="30" as="alternateBounds"/>
                    </mxGeometry>
                </mxCell>
                <mxCell id="23" value="session_start" style="shape=partialRectangle;connectable=0;fillColor=none;top=0;left=0;bottom=0;right=0;align=left;spacingLeft=6;overflow=hidden;whiteSpace=wrap;html=1;strokeColor=#FFFFFF;fontColor=#FFFFFF;" parent="21" vertex="1">
                    <mxGeometry x="30" width="218.12" height="30" as="geometry">
                        <mxRectangle width="218.12" height="30" as="alternateBounds"/>
                    </mxGeometry>
                </mxCell>
                <mxCell id="24" value="" style="shape=tableRow;horizontal=0;startSize=0;swimlaneHead=0;swimlaneBody=0;fillColor=none;collapsible=0;dropTarget=0;points=[[0,0.5],[1,0.5]];portConstraint=eastwest;top=0;left=0;right=0;bottom=0;strokeColor=#FFFFFF;fontColor=#FFFFFF;" parent="11" vertex="1">
                    <mxGeometry y="160" width="248.12" height="30" as="geometry"/>
                </mxCell>
                <mxCell id="25" value="" style="shape=partialRectangle;connectable=0;fillColor=none;top=0;left=0;bottom=0;right=0;editable=1;overflow=hidden;whiteSpace=wrap;html=1;strokeColor=#FFFFFF;fontColor=#FFFFFF;" parent="24" vertex="1">
                    <mxGeometry width="30" height="30" as="geometry">
                        <mxRectangle width="30" height="30" as="alternateBounds"/>
                    </mxGeometry>
                </mxCell>
                <mxCell id="26" value="session_end" style="shape=partialRectangle;connectable=0;fillColor=none;top=0;left=0;bottom=0;right=0;align=left;spacingLeft=6;overflow=hidden;whiteSpace=wrap;html=1;strokeColor=#FFFFFF;fontColor=#FFFFFF;" parent="24" vertex="1">
                    <mxGeometry x="30" width="218.12" height="30" as="geometry">
                        <mxRectangle width="218.12" height="30" as="alternateBounds"/>
                    </mxGeometry>
                </mxCell>
                <mxCell id="43" value="" style="shape=tableRow;horizontal=0;startSize=0;swimlaneHead=0;swimlaneBody=0;fillColor=none;collapsible=0;dropTarget=0;points=[[0,0.5],[1,0.5]];portConstraint=eastwest;top=0;left=0;right=0;bottom=0;strokeColor=#FFFFFF;fontColor=#FFFFFF;" parent="11" vertex="1">
                    <mxGeometry y="190" width="248.12" height="30" as="geometry"/>
                </mxCell>
                <mxCell id="44" value="" style="shape=partialRectangle;connectable=0;fillColor=none;top=0;left=0;bottom=0;right=0;editable=1;overflow=hidden;whiteSpace=wrap;html=1;strokeColor=#FFFFFF;fontColor=#FFFFFF;" parent="43" vertex="1">
                    <mxGeometry width="30" height="30" as="geometry">
                        <mxRectangle width="30" height="30" as="alternateBounds"/>
                    </mxGeometry>
                </mxCell>
                <mxCell id="45" value="rating_given" style="shape=partialRectangle;connectable=0;fillColor=none;top=0;left=0;bottom=0;right=0;align=left;spacingLeft=6;overflow=hidden;whiteSpace=wrap;html=1;strokeColor=#FFFFFF;fontColor=#FFFFFF;" parent="43" vertex="1">
                    <mxGeometry x="30" width="218.12" height="30" as="geometry">
                        <mxRectangle width="218.12" height="30" as="alternateBounds"/>
                    </mxGeometry>
                </mxCell>
                <mxCell id="46" value="" style="shape=tableRow;horizontal=0;startSize=0;swimlaneHead=0;swimlaneBody=0;fillColor=none;collapsible=0;dropTarget=0;points=[[0,0.5],[1,0.5]];portConstraint=eastwest;top=0;left=0;right=0;bottom=0;strokeColor=#FFFFFF;fontColor=#FFFFFF;" parent="11" vertex="1">
                    <mxGeometry y="220" width="248.12" height="30" as="geometry"/>
                </mxCell>
                <mxCell id="47" value="" style="shape=partialRectangle;connectable=0;fillColor=none;top=0;left=0;bottom=0;right=0;editable=1;overflow=hidden;whiteSpace=wrap;html=1;strokeColor=#FFFFFF;fontColor=#FFFFFF;" parent="46" vertex="1">
                    <mxGeometry width="30" height="30" as="geometry">
                        <mxRectangle width="30" height="30" as="alternateBounds"/>
                    </mxGeometry>
                </mxCell>
                <mxCell id="48" value="reaction_type" style="shape=partialRectangle;connectable=0;fillColor=none;top=0;left=0;bottom=0;right=0;align=left;spacingLeft=6;overflow=hidden;whiteSpace=wrap;html=1;strokeColor=#FFFFFF;fontColor=#FFFFFF;" parent="46" vertex="1">
                    <mxGeometry x="30" width="218.12" height="30" as="geometry">
                        <mxRectangle width="218.12" height="30" as="alternateBounds"/>
                    </mxGeometry>
                </mxCell>
                <mxCell id="49" value="" style="shape=tableRow;horizontal=0;startSize=0;swimlaneHead=0;swimlaneBody=0;fillColor=none;collapsible=0;dropTarget=0;points=[[0,0.5],[1,0.5]];portConstraint=eastwest;top=0;left=0;right=0;bottom=0;strokeColor=#FFFFFF;fontColor=#FFFFFF;" parent="11" vertex="1">
                    <mxGeometry y="250" width="248.12" height="30" as="geometry"/>
                </mxCell>
                <mxCell id="50" value="" style="shape=partialRectangle;connectable=0;fillColor=none;top=0;left=0;bottom=0;right=0;editable=1;overflow=hidden;whiteSpace=wrap;html=1;strokeColor=#FFFFFF;fontColor=#FFFFFF;" parent="49" vertex="1">
                    <mxGeometry width="30" height="30" as="geometry">
                        <mxRectangle width="30" height="30" as="alternateBounds"/>
                    </mxGeometry>
                </mxCell>
                <mxCell id="51" value="region code" style="shape=partialRectangle;connectable=0;fillColor=none;top=0;left=0;bottom=0;right=0;align=left;spacingLeft=6;overflow=hidden;whiteSpace=wrap;html=1;strokeColor=#FFFFFF;fontColor=#FFFFFF;" parent="49" vertex="1">
                    <mxGeometry x="30" width="218.12" height="30" as="geometry">
                        <mxRectangle width="218.12" height="30" as="alternateBounds"/>
                    </mxGeometry>
                </mxCell>
                <mxCell id="52" value="Users" style="shape=table;startSize=30;container=1;collapsible=1;childLayout=tableLayout;fixedRows=1;rowLines=0;fontStyle=1;align=center;resizeLast=1;html=1;strokeColor=#FFFFFF;fontColor=#1A1A1A;" parent="1" vertex="1">
                    <mxGeometry x="-408.12" y="440" width="250" height="250" as="geometry"/>
                </mxCell>
                <mxCell id="53" value="" style="shape=tableRow;horizontal=0;startSize=0;swimlaneHead=0;swimlaneBody=0;fillColor=none;collapsible=0;dropTarget=0;points=[[0,0.5],[1,0.5]];portConstraint=eastwest;top=0;left=0;right=0;bottom=1;strokeColor=#FFFFFF;fontColor=#FFFFFF;" parent="52" vertex="1">
                    <mxGeometry y="30" width="250" height="40" as="geometry"/>
                </mxCell>
                <mxCell id="54" value="" style="shape=partialRectangle;connectable=0;fillColor=none;top=0;left=0;bottom=0;right=0;fontStyle=1;overflow=hidden;whiteSpace=wrap;html=1;strokeColor=#FFFFFF;fontColor=#FFFFFF;" parent="53" vertex="1">
                    <mxGeometry width="30" height="40" as="geometry">
                        <mxRectangle width="30" height="40" as="alternateBounds"/>
                    </mxGeometry>
                </mxCell>
                <mxCell id="55" value="user_id" style="shape=partialRectangle;connectable=0;fillColor=none;top=0;left=0;bottom=0;right=0;align=left;spacingLeft=6;fontStyle=5;overflow=hidden;whiteSpace=wrap;html=1;strokeColor=#FFFFFF;fontColor=#FFFFFF;" parent="53" vertex="1">
                    <mxGeometry x="30" width="220" height="40" as="geometry">
                        <mxRectangle width="220" height="40" as="alternateBounds"/>
                    </mxGeometry>
                </mxCell>
                <mxCell id="56" value="" style="shape=tableRow;horizontal=0;startSize=0;swimlaneHead=0;swimlaneBody=0;fillColor=none;collapsible=0;dropTarget=0;points=[[0,0.5],[1,0.5]];portConstraint=eastwest;top=0;left=0;right=0;bottom=0;strokeColor=#FFFFFF;fontColor=#FFFFFF;" parent="52" vertex="1">
                    <mxGeometry y="70" width="250" height="30" as="geometry"/>
                </mxCell>
                <mxCell id="57" value="" style="shape=partialRectangle;connectable=0;fillColor=none;top=0;left=0;bottom=0;right=0;editable=1;overflow=hidden;whiteSpace=wrap;html=1;strokeColor=#FFFFFF;fontColor=#FFFFFF;" parent="56" vertex="1">
                    <mxGeometry width="30" height="30" as="geometry">
                        <mxRectangle width="30" height="30" as="alternateBounds"/>
                    </mxGeometry>
                </mxCell>
                <mxCell id="58" value="first_name&lt;span style=&quot;white-space: pre;&quot;&gt;&#x9;&lt;/span&gt;" style="shape=partialRectangle;connectable=0;fillColor=none;top=0;left=0;bottom=0;right=0;align=left;spacingLeft=6;overflow=hidden;whiteSpace=wrap;html=1;strokeColor=#FFFFFF;fontColor=#FFFFFF;" parent="56" vertex="1">
                    <mxGeometry x="30" width="220" height="30" as="geometry">
                        <mxRectangle width="220" height="30" as="alternateBounds"/>
                    </mxGeometry>
                </mxCell>
                <mxCell id="59" value="" style="shape=tableRow;horizontal=0;startSize=0;swimlaneHead=0;swimlaneBody=0;fillColor=none;collapsible=0;dropTarget=0;points=[[0,0.5],[1,0.5]];portConstraint=eastwest;top=0;left=0;right=0;bottom=0;strokeColor=#FFFFFF;fontColor=#FFFFFF;" parent="52" vertex="1">
                    <mxGeometry y="100" width="250" height="30" as="geometry"/>
                </mxCell>
                <mxCell id="60" value="" style="shape=partialRectangle;connectable=0;fillColor=none;top=0;left=0;bottom=0;right=0;editable=1;overflow=hidden;whiteSpace=wrap;html=1;strokeColor=#FFFFFF;fontColor=#FFFFFF;" parent="59" vertex="1">
                    <mxGeometry width="30" height="30" as="geometry">
                        <mxRectangle width="30" height="30" as="alternateBounds"/>
                    </mxGeometry>
                </mxCell>
                <mxCell id="61" value="last_name" style="shape=partialRectangle;connectable=0;fillColor=none;top=0;left=0;bottom=0;right=0;align=left;spacingLeft=6;overflow=hidden;whiteSpace=wrap;html=1;strokeColor=#FFFFFF;fontColor=#FFFFFF;" parent="59" vertex="1">
                    <mxGeometry x="30" width="220" height="30" as="geometry">
                        <mxRectangle width="220" height="30" as="alternateBounds"/>
                    </mxGeometry>
                </mxCell>
                <mxCell id="62" value="" style="shape=tableRow;horizontal=0;startSize=0;swimlaneHead=0;swimlaneBody=0;fillColor=none;collapsible=0;dropTarget=0;points=[[0,0.5],[1,0.5]];portConstraint=eastwest;top=0;left=0;right=0;bottom=0;strokeColor=#FFFFFF;fontColor=#FFFFFF;" parent="52" vertex="1">
                    <mxGeometry y="130" width="250" height="30" as="geometry"/>
                </mxCell>
                <mxCell id="63" value="" style="shape=partialRectangle;connectable=0;fillColor=none;top=0;left=0;bottom=0;right=0;editable=1;overflow=hidden;whiteSpace=wrap;html=1;strokeColor=#FFFFFF;fontColor=#FFFFFF;" parent="62" vertex="1">
                    <mxGeometry width="30" height="30" as="geometry">
                        <mxRectangle width="30" height="30" as="alternateBounds"/>
                    </mxGeometry>
                </mxCell>
                <mxCell id="64" value="birth_date" style="shape=partialRectangle;connectable=0;fillColor=none;top=0;left=0;bottom=0;right=0;align=left;spacingLeft=6;overflow=hidden;whiteSpace=wrap;html=1;strokeColor=#FFFFFF;fontColor=#FFFFFF;" parent="62" vertex="1">
                    <mxGeometry x="30" width="220" height="30" as="geometry">
                        <mxRectangle width="220" height="30" as="alternateBounds"/>
                    </mxGeometry>
                </mxCell>
                <mxCell id="65" value="" style="shape=tableRow;horizontal=0;startSize=0;swimlaneHead=0;swimlaneBody=0;fillColor=none;collapsible=0;dropTarget=0;points=[[0,0.5],[1,0.5]];portConstraint=eastwest;top=0;left=0;right=0;bottom=0;strokeColor=#FFFFFF;fontColor=#FFFFFF;" parent="52" vertex="1">
                    <mxGeometry y="160" width="250" height="30" as="geometry"/>
                </mxCell>
                <mxCell id="66" value="" style="shape=partialRectangle;connectable=0;fillColor=none;top=0;left=0;bottom=0;right=0;editable=1;overflow=hidden;whiteSpace=wrap;html=1;strokeColor=#FFFFFF;fontColor=#FFFFFF;" parent="65" vertex="1">
                    <mxGeometry width="30" height="30" as="geometry">
                        <mxRectangle width="30" height="30" as="alternateBounds"/>
                    </mxGeometry>
                </mxCell>
                <mxCell id="67" value="subscription_plan" style="shape=partialRectangle;connectable=0;fillColor=none;top=0;left=0;bottom=0;right=0;align=left;spacingLeft=6;overflow=hidden;whiteSpace=wrap;html=1;strokeColor=#FFFFFF;fontColor=#FFFFFF;" parent="65" vertex="1">
                    <mxGeometry x="30" width="220" height="30" as="geometry">
                        <mxRectangle width="220" height="30" as="alternateBounds"/>
                    </mxGeometry>
                </mxCell>
                <mxCell id="68" value="" style="shape=tableRow;horizontal=0;startSize=0;swimlaneHead=0;swimlaneBody=0;fillColor=none;collapsible=0;dropTarget=0;points=[[0,0.5],[1,0.5]];portConstraint=eastwest;top=0;left=0;right=0;bottom=0;strokeColor=#FFFFFF;fontColor=#FFFFFF;" parent="52" vertex="1">
                    <mxGeometry y="190" width="250" height="30" as="geometry"/>
                </mxCell>
                <mxCell id="69" value="" style="shape=partialRectangle;connectable=0;fillColor=none;top=0;left=0;bottom=0;right=0;editable=1;overflow=hidden;whiteSpace=wrap;html=1;strokeColor=#FFFFFF;fontColor=#FFFFFF;" parent="68" vertex="1">
                    <mxGeometry width="30" height="30" as="geometry">
                        <mxRectangle width="30" height="30" as="alternateBounds"/>
                    </mxGeometry>
                </mxCell>
                <mxCell id="70" value="subscription_start_date" style="shape=partialRectangle;connectable=0;fillColor=none;top=0;left=0;bottom=0;right=0;align=left;spacingLeft=6;overflow=hidden;whiteSpace=wrap;html=1;strokeColor=#FFFFFF;fontColor=#FFFFFF;" parent="68" vertex="1">
                    <mxGeometry x="30" width="220" height="30" as="geometry">
                        <mxRectangle width="220" height="30" as="alternateBounds"/>
                    </mxGeometry>
                </mxCell>
                <mxCell id="71" value="" style="shape=tableRow;horizontal=0;startSize=0;swimlaneHead=0;swimlaneBody=0;fillColor=none;collapsible=0;dropTarget=0;points=[[0,0.5],[1,0.5]];portConstraint=eastwest;top=0;left=0;right=0;bottom=0;strokeColor=#FFFFFF;fontColor=#FFFFFF;" parent="52" vertex="1">
                    <mxGeometry y="220" width="250" height="30" as="geometry"/>
                </mxCell>
                <mxCell id="72" value="" style="shape=partialRectangle;connectable=0;fillColor=none;top=0;left=0;bottom=0;right=0;editable=1;overflow=hidden;whiteSpace=wrap;html=1;strokeColor=#FFFFFF;fontColor=#FFFFFF;" parent="71" vertex="1">
                    <mxGeometry width="30" height="30" as="geometry">
                        <mxRectangle width="30" height="30" as="alternateBounds"/>
                    </mxGeometry>
                </mxCell>
                <mxCell id="73" value="iban" style="shape=partialRectangle;connectable=0;fillColor=none;top=0;left=0;bottom=0;right=0;align=left;spacingLeft=6;overflow=hidden;whiteSpace=wrap;html=1;strokeColor=#FFFFFF;fontColor=#FFFFFF;" parent="71" vertex="1">
                    <mxGeometry x="30" width="220" height="30" as="geometry">
                        <mxRectangle width="220" height="30" as="alternateBounds"/>
                    </mxGeometry>
                </mxCell>
                <mxCell id="77" value="Subscriptions" style="shape=table;startSize=30;container=1;collapsible=1;childLayout=tableLayout;fixedRows=1;rowLines=0;fontStyle=1;align=center;resizeLast=1;html=1;strokeColor=#FFFFFF;fontColor=#1A1A1A;" parent="1" vertex="1">
                    <mxGeometry x="-408.12" y="740" width="248.12" height="160" as="geometry"/>
                </mxCell>
                <mxCell id="78" value="" style="shape=tableRow;horizontal=0;startSize=0;swimlaneHead=0;swimlaneBody=0;fillColor=none;collapsible=0;dropTarget=0;points=[[0,0.5],[1,0.5]];portConstraint=eastwest;top=0;left=0;right=0;bottom=1;strokeColor=#FFFFFF;fontColor=#FFFFFF;" parent="77" vertex="1">
                    <mxGeometry y="30" width="248.12" height="40" as="geometry"/>
                </mxCell>
                <mxCell id="79" value="" style="shape=partialRectangle;connectable=0;fillColor=none;top=0;left=0;bottom=0;right=0;fontStyle=1;overflow=hidden;whiteSpace=wrap;html=1;strokeColor=#FFFFFF;fontColor=#FFFFFF;" parent="78" vertex="1">
                    <mxGeometry width="30" height="40" as="geometry">
                        <mxRectangle width="30" height="40" as="alternateBounds"/>
                    </mxGeometry>
                </mxCell>
                <mxCell id="80" value="id_subscription" style="shape=partialRectangle;connectable=0;fillColor=none;top=0;left=0;bottom=0;right=0;align=left;spacingLeft=6;fontStyle=5;overflow=hidden;whiteSpace=wrap;html=1;strokeColor=#FFFFFF;fontColor=#FFFFFF;" parent="78" vertex="1">
                    <mxGeometry x="30" width="218.12" height="40" as="geometry">
                        <mxRectangle width="218.12" height="40" as="alternateBounds"/>
                    </mxGeometry>
                </mxCell>
                <mxCell id="81" value="" style="shape=tableRow;horizontal=0;startSize=0;swimlaneHead=0;swimlaneBody=0;fillColor=none;collapsible=0;dropTarget=0;points=[[0,0.5],[1,0.5]];portConstraint=eastwest;top=0;left=0;right=0;bottom=0;strokeColor=#FFFFFF;fontColor=#FFFFFF;" parent="77" vertex="1">
                    <mxGeometry y="70" width="248.12" height="30" as="geometry"/>
                </mxCell>
                <mxCell id="82" value="" style="shape=partialRectangle;connectable=0;fillColor=none;top=0;left=0;bottom=0;right=0;editable=1;overflow=hidden;whiteSpace=wrap;html=1;strokeColor=#FFFFFF;fontColor=#FFFFFF;" parent="81" vertex="1">
                    <mxGeometry width="30" height="30" as="geometry">
                        <mxRectangle width="30" height="30" as="alternateBounds"/>
                    </mxGeometry>
                </mxCell>
                <mxCell id="83" value="subscription_name&lt;span style=&quot;white-space: pre;&quot;&gt;&#x9;&lt;/span&gt;" style="shape=partialRectangle;connectable=0;fillColor=none;top=0;left=0;bottom=0;right=0;align=left;spacingLeft=6;overflow=hidden;whiteSpace=wrap;html=1;strokeColor=#FFFFFF;fontColor=#FFFFFF;" parent="81" vertex="1">
                    <mxGeometry x="30" width="218.12" height="30" as="geometry">
                        <mxRectangle width="218.12" height="30" as="alternateBounds"/>
                    </mxGeometry>
                </mxCell>
                <mxCell id="84" value="" style="shape=tableRow;horizontal=0;startSize=0;swimlaneHead=0;swimlaneBody=0;fillColor=none;collapsible=0;dropTarget=0;points=[[0,0.5],[1,0.5]];portConstraint=eastwest;top=0;left=0;right=0;bottom=0;strokeColor=#FFFFFF;fontColor=#FFFFFF;" parent="77" vertex="1">
                    <mxGeometry y="100" width="248.12" height="30" as="geometry"/>
                </mxCell>
                <mxCell id="85" value="" style="shape=partialRectangle;connectable=0;fillColor=none;top=0;left=0;bottom=0;right=0;editable=1;overflow=hidden;whiteSpace=wrap;html=1;strokeColor=#FFFFFF;fontColor=#FFFFFF;" parent="84" vertex="1">
                    <mxGeometry width="30" height="30" as="geometry">
                        <mxRectangle width="30" height="30" as="alternateBounds"/>
                    </mxGeometry>
                </mxCell>
                <mxCell id="86" value="subscription_price" style="shape=partialRectangle;connectable=0;fillColor=none;top=0;left=0;bottom=0;right=0;align=left;spacingLeft=6;overflow=hidden;whiteSpace=wrap;html=1;strokeColor=#FFFFFF;fontColor=#FFFFFF;" parent="84" vertex="1">
                    <mxGeometry x="30" width="218.12" height="30" as="geometry">
                        <mxRectangle width="218.12" height="30" as="alternateBounds"/>
                    </mxGeometry>
                </mxCell>
                <mxCell id="87" value="" style="shape=tableRow;horizontal=0;startSize=0;swimlaneHead=0;swimlaneBody=0;fillColor=none;collapsible=0;dropTarget=0;points=[[0,0.5],[1,0.5]];portConstraint=eastwest;top=0;left=0;right=0;bottom=0;strokeColor=#FFFFFF;fontColor=#FFFFFF;" parent="77" vertex="1">
                    <mxGeometry y="130" width="248.12" height="30" as="geometry"/>
                </mxCell>
                <mxCell id="88" value="" style="shape=partialRectangle;connectable=0;fillColor=none;top=0;left=0;bottom=0;right=0;editable=1;overflow=hidden;whiteSpace=wrap;html=1;strokeColor=#FFFFFF;fontColor=#FFFFFF;" parent="87" vertex="1">
                    <mxGeometry width="30" height="30" as="geometry">
                        <mxRectangle width="30" height="30" as="alternateBounds"/>
                    </mxGeometry>
                </mxCell>
                <mxCell id="89" value="subscription_currency_code" style="shape=partialRectangle;connectable=0;fillColor=none;top=0;left=0;bottom=0;right=0;align=left;spacingLeft=6;overflow=hidden;whiteSpace=wrap;html=1;strokeColor=#FFFFFF;fontColor=#FFFFFF;" parent="87" vertex="1">
                    <mxGeometry x="30" width="218.12" height="30" as="geometry">
                        <mxRectangle width="218.12" height="30" as="alternateBounds"/>
                    </mxGeometry>
                </mxCell>
                <mxCell id="207" value="" style="shape=ext;double=1;rounded=1;whiteSpace=wrap;html=1;fillColor=none;" parent="1" vertex="1">
                    <mxGeometry x="-40" y="150" width="625.94" height="710" as="geometry"/>
                </mxCell>
                <mxCell id="102" value="name_basics" style="shape=table;startSize=30;container=1;collapsible=1;childLayout=tableLayout;fixedRows=1;rowLines=0;fontStyle=1;align=center;resizeLast=1;html=1;strokeColor=#FFFFFF;fontColor=#1A1A1A;" parent="1" vertex="1">
                    <mxGeometry x="310" y="455" width="228.12" height="190" as="geometry"/>
                </mxCell>
                <mxCell id="103" value="" style="shape=tableRow;horizontal=0;startSize=0;swimlaneHead=0;swimlaneBody=0;fillColor=none;collapsible=0;dropTarget=0;points=[[0,0.5],[1,0.5]];portConstraint=eastwest;top=0;left=0;right=0;bottom=1;strokeColor=#FFFFFF;fontColor=#FFFFFF;" parent="102" vertex="1">
                    <mxGeometry y="30" width="228.12" height="35" as="geometry"/>
                </mxCell>
                <mxCell id="104" value="" style="shape=partialRectangle;connectable=0;fillColor=none;top=0;left=0;bottom=0;right=0;fontStyle=1;overflow=hidden;whiteSpace=wrap;html=1;strokeColor=#FFFFFF;fontColor=#FFFFFF;" parent="103" vertex="1">
                    <mxGeometry width="30" height="35" as="geometry">
                        <mxRectangle width="30" height="35" as="alternateBounds"/>
                    </mxGeometry>
                </mxCell>
                <mxCell id="105" value="nconst" style="shape=partialRectangle;connectable=0;fillColor=none;top=0;left=0;bottom=0;right=0;align=left;spacingLeft=6;fontStyle=5;overflow=hidden;whiteSpace=wrap;html=1;strokeColor=#FFFFFF;fontColor=#FFFFFF;" parent="103" vertex="1">
                    <mxGeometry x="30" width="198.12" height="35" as="geometry">
                        <mxRectangle width="198.12" height="35" as="alternateBounds"/>
                    </mxGeometry>
                </mxCell>
                <mxCell id="106" value="" style="shape=tableRow;horizontal=0;startSize=0;swimlaneHead=0;swimlaneBody=0;fillColor=none;collapsible=0;dropTarget=0;points=[[0,0.5],[1,0.5]];portConstraint=eastwest;top=0;left=0;right=0;bottom=0;strokeColor=#FFFFFF;fontColor=#FFFFFF;" parent="102" vertex="1">
                    <mxGeometry y="65" width="228.12" height="35" as="geometry"/>
                </mxCell>
                <mxCell id="107" value="" style="shape=partialRectangle;connectable=0;fillColor=none;top=0;left=0;bottom=0;right=0;editable=1;overflow=hidden;whiteSpace=wrap;html=1;strokeColor=#FFFFFF;fontColor=#FFFFFF;" parent="106" vertex="1">
                    <mxGeometry width="30" height="35" as="geometry">
                        <mxRectangle width="30" height="35" as="alternateBounds"/>
                    </mxGeometry>
                </mxCell>
                <mxCell id="108" value="primaryName" style="shape=partialRectangle;connectable=0;fillColor=none;top=0;left=0;bottom=0;right=0;align=left;spacingLeft=6;overflow=hidden;whiteSpace=wrap;html=1;strokeColor=#FFFFFF;fontColor=#FFFFFF;" parent="106" vertex="1">
                    <mxGeometry x="30" width="198.12" height="35" as="geometry">
                        <mxRectangle width="198.12" height="35" as="alternateBounds"/>
                    </mxGeometry>
                </mxCell>
                <mxCell id="109" value="" style="shape=tableRow;horizontal=0;startSize=0;swimlaneHead=0;swimlaneBody=0;fillColor=none;collapsible=0;dropTarget=0;points=[[0,0.5],[1,0.5]];portConstraint=eastwest;top=0;left=0;right=0;bottom=0;strokeColor=#FFFFFF;fontColor=#FFFFFF;" parent="102" vertex="1">
                    <mxGeometry y="100" width="228.12" height="30" as="geometry"/>
                </mxCell>
                <mxCell id="110" value="" style="shape=partialRectangle;connectable=0;fillColor=none;top=0;left=0;bottom=0;right=0;editable=1;overflow=hidden;whiteSpace=wrap;html=1;strokeColor=#FFFFFF;fontColor=#FFFFFF;" parent="109" vertex="1">
                    <mxGeometry width="30" height="30" as="geometry">
                        <mxRectangle width="30" height="30" as="alternateBounds"/>
                    </mxGeometry>
                </mxCell>
                <mxCell id="111" value="birthYear" style="shape=partialRectangle;connectable=0;fillColor=none;top=0;left=0;bottom=0;right=0;align=left;spacingLeft=6;overflow=hidden;whiteSpace=wrap;html=1;strokeColor=#FFFFFF;fontColor=#FFFFFF;" parent="109" vertex="1">
                    <mxGeometry x="30" width="198.12" height="30" as="geometry">
                        <mxRectangle width="198.12" height="30" as="alternateBounds"/>
                    </mxGeometry>
                </mxCell>
                <mxCell id="112" value="" style="shape=tableRow;horizontal=0;startSize=0;swimlaneHead=0;swimlaneBody=0;fillColor=none;collapsible=0;dropTarget=0;points=[[0,0.5],[1,0.5]];portConstraint=eastwest;top=0;left=0;right=0;bottom=0;strokeColor=#FFFFFF;fontColor=#FFFFFF;" parent="102" vertex="1">
                    <mxGeometry y="130" width="228.12" height="30" as="geometry"/>
                </mxCell>
                <mxCell id="113" value="" style="shape=partialRectangle;connectable=0;fillColor=none;top=0;left=0;bottom=0;right=0;editable=1;overflow=hidden;whiteSpace=wrap;html=1;strokeColor=#FFFFFF;fontColor=#FFFFFF;" parent="112" vertex="1">
                    <mxGeometry width="30" height="30" as="geometry">
                        <mxRectangle width="30" height="30" as="alternateBounds"/>
                    </mxGeometry>
                </mxCell>
                <mxCell id="114" value="deathYear" style="shape=partialRectangle;connectable=0;fillColor=none;top=0;left=0;bottom=0;right=0;align=left;spacingLeft=6;overflow=hidden;whiteSpace=wrap;html=1;strokeColor=#FFFFFF;fontColor=#FFFFFF;" parent="112" vertex="1">
                    <mxGeometry x="30" width="198.12" height="30" as="geometry">
                        <mxRectangle width="198.12" height="30" as="alternateBounds"/>
                    </mxGeometry>
                </mxCell>
                <mxCell id="115" value="" style="shape=tableRow;horizontal=0;startSize=0;swimlaneHead=0;swimlaneBody=0;fillColor=none;collapsible=0;dropTarget=0;points=[[0,0.5],[1,0.5]];portConstraint=eastwest;top=0;left=0;right=0;bottom=0;strokeColor=#FFFFFF;fontColor=#FFFFFF;" parent="102" vertex="1">
                    <mxGeometry y="160" width="228.12" height="30" as="geometry"/>
                </mxCell>
                <mxCell id="116" value="" style="shape=partialRectangle;connectable=0;fillColor=none;top=0;left=0;bottom=0;right=0;editable=1;overflow=hidden;whiteSpace=wrap;html=1;strokeColor=#FFFFFF;fontColor=#FFFFFF;" parent="115" vertex="1">
                    <mxGeometry width="30" height="30" as="geometry">
                        <mxRectangle width="30" height="30" as="alternateBounds"/>
                    </mxGeometry>
                </mxCell>
                <mxCell id="117" value="knownForTitles" style="shape=partialRectangle;connectable=0;fillColor=none;top=0;left=0;bottom=0;right=0;align=left;spacingLeft=6;overflow=hidden;whiteSpace=wrap;html=1;strokeColor=#FFFFFF;fontColor=#FFFFFF;" parent="115" vertex="1">
                    <mxGeometry x="30" width="198.12" height="30" as="geometry">
                        <mxRectangle width="198.12" height="30" as="alternateBounds"/>
                    </mxGeometry>
                </mxCell>
                <mxCell id="127" value="title_crew" style="shape=table;startSize=30;container=1;collapsible=1;childLayout=tableLayout;fixedRows=1;rowLines=0;fontStyle=1;align=center;resizeLast=1;html=1;strokeColor=#FFFFFF;fontColor=#1A1A1A;" parent="1" vertex="1">
                    <mxGeometry x="10" y="500" width="228.12" height="100" as="geometry"/>
                </mxCell>
                <mxCell id="128" value="" style="shape=tableRow;horizontal=0;startSize=0;swimlaneHead=0;swimlaneBody=0;fillColor=none;collapsible=0;dropTarget=0;points=[[0,0.5],[1,0.5]];portConstraint=eastwest;top=0;left=0;right=0;bottom=1;strokeColor=#FFFFFF;fontColor=#FFFFFF;" parent="127" vertex="1">
                    <mxGeometry y="30" width="228.12" height="40" as="geometry"/>
                </mxCell>
                <mxCell id="129" value="" style="shape=partialRectangle;connectable=0;fillColor=none;top=0;left=0;bottom=0;right=0;fontStyle=1;overflow=hidden;whiteSpace=wrap;html=1;strokeColor=#FFFFFF;fontColor=#FFFFFF;" parent="128" vertex="1">
                    <mxGeometry width="30" height="40" as="geometry">
                        <mxRectangle width="30" height="40" as="alternateBounds"/>
                    </mxGeometry>
                </mxCell>
                <mxCell id="130" value="tconst" style="shape=partialRectangle;connectable=0;fillColor=none;top=0;left=0;bottom=0;right=0;align=left;spacingLeft=6;fontStyle=5;overflow=hidden;whiteSpace=wrap;html=1;strokeColor=#FFFFFF;fontColor=#FFFFFF;" parent="128" vertex="1">
                    <mxGeometry x="30" width="198.12" height="40" as="geometry">
                        <mxRectangle width="198.12" height="40" as="alternateBounds"/>
                    </mxGeometry>
                </mxCell>
                <mxCell id="131" value="" style="shape=tableRow;horizontal=0;startSize=0;swimlaneHead=0;swimlaneBody=0;fillColor=none;collapsible=0;dropTarget=0;points=[[0,0.5],[1,0.5]];portConstraint=eastwest;top=0;left=0;right=0;bottom=0;strokeColor=#FFFFFF;fontColor=#FFFFFF;" parent="127" vertex="1">
                    <mxGeometry y="70" width="228.12" height="30" as="geometry"/>
                </mxCell>
                <mxCell id="132" value="" style="shape=partialRectangle;connectable=0;fillColor=none;top=0;left=0;bottom=0;right=0;editable=1;overflow=hidden;whiteSpace=wrap;html=1;strokeColor=#FFFFFF;fontColor=#FFFFFF;" parent="131" vertex="1">
                    <mxGeometry width="30" height="30" as="geometry">
                        <mxRectangle width="30" height="30" as="alternateBounds"/>
                    </mxGeometry>
                </mxCell>
                <mxCell id="133" value="director" style="shape=partialRectangle;connectable=0;fillColor=none;top=0;left=0;bottom=0;right=0;align=left;spacingLeft=6;overflow=hidden;whiteSpace=wrap;html=1;strokeColor=#FFFFFF;fontColor=#FFFFFF;" parent="131" vertex="1">
                    <mxGeometry x="30" width="198.12" height="30" as="geometry">
                        <mxRectangle width="198.12" height="30" as="alternateBounds"/>
                    </mxGeometry>
                </mxCell>
                <mxCell id="149" value="title_episodes" style="shape=table;startSize=30;container=1;collapsible=1;childLayout=tableLayout;fixedRows=1;rowLines=0;fontStyle=1;align=center;resizeLast=1;html=1;strokeColor=#FFFFFF;fontColor=#1A1A1A;" parent="1" vertex="1">
                    <mxGeometry x="310" y="230" width="228.12" height="160" as="geometry"/>
                </mxCell>
                <mxCell id="150" value="" style="shape=tableRow;horizontal=0;startSize=0;swimlaneHead=0;swimlaneBody=0;fillColor=none;collapsible=0;dropTarget=0;points=[[0,0.5],[1,0.5]];portConstraint=eastwest;top=0;left=0;right=0;bottom=1;strokeColor=#FFFFFF;fontColor=#FFFFFF;" parent="149" vertex="1">
                    <mxGeometry y="30" width="228.12" height="40" as="geometry"/>
                </mxCell>
                <mxCell id="151" value="" style="shape=partialRectangle;connectable=0;fillColor=none;top=0;left=0;bottom=0;right=0;fontStyle=1;overflow=hidden;whiteSpace=wrap;html=1;strokeColor=#FFFFFF;fontColor=#FFFFFF;" parent="150" vertex="1">
                    <mxGeometry width="30" height="40" as="geometry">
                        <mxRectangle width="30" height="40" as="alternateBounds"/>
                    </mxGeometry>
                </mxCell>
                <mxCell id="152" value="tconst" style="shape=partialRectangle;connectable=0;fillColor=none;top=0;left=0;bottom=0;right=0;align=left;spacingLeft=6;fontStyle=5;overflow=hidden;whiteSpace=wrap;html=1;strokeColor=#FFFFFF;fontColor=#FFFFFF;" parent="150" vertex="1">
                    <mxGeometry x="30" width="198.12" height="40" as="geometry">
                        <mxRectangle width="198.12" height="40" as="alternateBounds"/>
                    </mxGeometry>
                </mxCell>
                <mxCell id="153" value="" style="shape=tableRow;horizontal=0;startSize=0;swimlaneHead=0;swimlaneBody=0;fillColor=none;collapsible=0;dropTarget=0;points=[[0,0.5],[1,0.5]];portConstraint=eastwest;top=0;left=0;right=0;bottom=0;strokeColor=#FFFFFF;fontColor=#FFFFFF;" parent="149" vertex="1">
                    <mxGeometry y="70" width="228.12" height="30" as="geometry"/>
                </mxCell>
                <mxCell id="154" value="" style="shape=partialRectangle;connectable=0;fillColor=none;top=0;left=0;bottom=0;right=0;editable=1;overflow=hidden;whiteSpace=wrap;html=1;strokeColor=#FFFFFF;fontColor=#FFFFFF;" parent="153" vertex="1">
                    <mxGeometry width="30" height="30" as="geometry">
                        <mxRectangle width="30" height="30" as="alternateBounds"/>
                    </mxGeometry>
                </mxCell>
                <mxCell id="155" value="parentTconst" style="shape=partialRectangle;connectable=0;fillColor=none;top=0;left=0;bottom=0;right=0;align=left;spacingLeft=6;overflow=hidden;whiteSpace=wrap;html=1;strokeColor=#FFFFFF;fontColor=#FFFFFF;" parent="153" vertex="1">
                    <mxGeometry x="30" width="198.12" height="30" as="geometry">
                        <mxRectangle width="198.12" height="30" as="alternateBounds"/>
                    </mxGeometry>
                </mxCell>
                <mxCell id="156" value="" style="shape=tableRow;horizontal=0;startSize=0;swimlaneHead=0;swimlaneBody=0;fillColor=none;collapsible=0;dropTarget=0;points=[[0,0.5],[1,0.5]];portConstraint=eastwest;top=0;left=0;right=0;bottom=0;strokeColor=#FFFFFF;fontColor=#FFFFFF;" parent="149" vertex="1">
                    <mxGeometry y="100" width="228.12" height="30" as="geometry"/>
                </mxCell>
                <mxCell id="157" value="" style="shape=partialRectangle;connectable=0;fillColor=none;top=0;left=0;bottom=0;right=0;editable=1;overflow=hidden;whiteSpace=wrap;html=1;strokeColor=#FFFFFF;fontColor=#FFFFFF;" parent="156" vertex="1">
                    <mxGeometry width="30" height="30" as="geometry">
                        <mxRectangle width="30" height="30" as="alternateBounds"/>
                    </mxGeometry>
                </mxCell>
                <mxCell id="158" value="seasonNumber" style="shape=partialRectangle;connectable=0;fillColor=none;top=0;left=0;bottom=0;right=0;align=left;spacingLeft=6;overflow=hidden;whiteSpace=wrap;html=1;strokeColor=#FFFFFF;fontColor=#FFFFFF;" parent="156" vertex="1">
                    <mxGeometry x="30" width="198.12" height="30" as="geometry">
                        <mxRectangle width="198.12" height="30" as="alternateBounds"/>
                    </mxGeometry>
                </mxCell>
                <mxCell id="159" value="" style="shape=tableRow;horizontal=0;startSize=0;swimlaneHead=0;swimlaneBody=0;fillColor=none;collapsible=0;dropTarget=0;points=[[0,0.5],[1,0.5]];portConstraint=eastwest;top=0;left=0;right=0;bottom=0;strokeColor=#FFFFFF;fontColor=#FFFFFF;" parent="149" vertex="1">
                    <mxGeometry y="130" width="228.12" height="30" as="geometry"/>
                </mxCell>
                <mxCell id="160" value="" style="shape=partialRectangle;connectable=0;fillColor=none;top=0;left=0;bottom=0;right=0;editable=1;overflow=hidden;whiteSpace=wrap;html=1;strokeColor=#FFFFFF;fontColor=#FFFFFF;" parent="159" vertex="1">
                    <mxGeometry width="30" height="30" as="geometry">
                        <mxRectangle width="30" height="30" as="alternateBounds"/>
                    </mxGeometry>
                </mxCell>
                <mxCell id="161" value="episodeNumber" style="shape=partialRectangle;connectable=0;fillColor=none;top=0;left=0;bottom=0;right=0;align=left;spacingLeft=6;overflow=hidden;whiteSpace=wrap;html=1;strokeColor=#FFFFFF;fontColor=#FFFFFF;" parent="159" vertex="1">
                    <mxGeometry x="30" width="198.12" height="30" as="geometry">
                        <mxRectangle width="198.12" height="30" as="alternateBounds"/>
                    </mxGeometry>
                </mxCell>
                <mxCell id="171" value="title_ratings" style="shape=table;startSize=30;container=1;collapsible=1;childLayout=tableLayout;fixedRows=1;rowLines=0;fontStyle=1;align=center;resizeLast=1;html=1;strokeColor=#FFFFFF;fontColor=#1A1A1A;" parent="1" vertex="1">
                    <mxGeometry x="10" y="630" width="228.12" height="130" as="geometry"/>
                </mxCell>
                <mxCell id="172" value="" style="shape=tableRow;horizontal=0;startSize=0;swimlaneHead=0;swimlaneBody=0;fillColor=none;collapsible=0;dropTarget=0;points=[[0,0.5],[1,0.5]];portConstraint=eastwest;top=0;left=0;right=0;bottom=1;strokeColor=#FFFFFF;fontColor=#FFFFFF;" parent="171" vertex="1">
                    <mxGeometry y="30" width="228.12" height="40" as="geometry"/>
                </mxCell>
                <mxCell id="173" value="" style="shape=partialRectangle;connectable=0;fillColor=none;top=0;left=0;bottom=0;right=0;fontStyle=1;overflow=hidden;whiteSpace=wrap;html=1;strokeColor=#FFFFFF;fontColor=#FFFFFF;" parent="172" vertex="1">
                    <mxGeometry width="30" height="40" as="geometry">
                        <mxRectangle width="30" height="40" as="alternateBounds"/>
                    </mxGeometry>
                </mxCell>
                <mxCell id="174" value="tconst" style="shape=partialRectangle;connectable=0;fillColor=none;top=0;left=0;bottom=0;right=0;align=left;spacingLeft=6;fontStyle=5;overflow=hidden;whiteSpace=wrap;html=1;strokeColor=#FFFFFF;fontColor=#FFFFFF;" parent="172" vertex="1">
                    <mxGeometry x="30" width="198.12" height="40" as="geometry">
                        <mxRectangle width="198.12" height="40" as="alternateBounds"/>
                    </mxGeometry>
                </mxCell>
                <mxCell id="175" value="" style="shape=tableRow;horizontal=0;startSize=0;swimlaneHead=0;swimlaneBody=0;fillColor=none;collapsible=0;dropTarget=0;points=[[0,0.5],[1,0.5]];portConstraint=eastwest;top=0;left=0;right=0;bottom=0;strokeColor=#FFFFFF;fontColor=#FFFFFF;" parent="171" vertex="1">
                    <mxGeometry y="70" width="228.12" height="30" as="geometry"/>
                </mxCell>
                <mxCell id="176" value="" style="shape=partialRectangle;connectable=0;fillColor=none;top=0;left=0;bottom=0;right=0;editable=1;overflow=hidden;whiteSpace=wrap;html=1;strokeColor=#FFFFFF;fontColor=#FFFFFF;" parent="175" vertex="1">
                    <mxGeometry width="30" height="30" as="geometry">
                        <mxRectangle width="30" height="30" as="alternateBounds"/>
                    </mxGeometry>
                </mxCell>
                <mxCell id="177" value="averageRating&lt;span style=&quot;white-space: pre;&quot;&gt;&#x9;&lt;/span&gt;" style="shape=partialRectangle;connectable=0;fillColor=none;top=0;left=0;bottom=0;right=0;align=left;spacingLeft=6;overflow=hidden;whiteSpace=wrap;html=1;strokeColor=#FFFFFF;fontColor=#FFFFFF;" parent="175" vertex="1">
                    <mxGeometry x="30" width="198.12" height="30" as="geometry">
                        <mxRectangle width="198.12" height="30" as="alternateBounds"/>
                    </mxGeometry>
                </mxCell>
                <mxCell id="178" value="" style="shape=tableRow;horizontal=0;startSize=0;swimlaneHead=0;swimlaneBody=0;fillColor=none;collapsible=0;dropTarget=0;points=[[0,0.5],[1,0.5]];portConstraint=eastwest;top=0;left=0;right=0;bottom=0;strokeColor=#FFFFFF;fontColor=#FFFFFF;" parent="171" vertex="1">
                    <mxGeometry y="100" width="228.12" height="30" as="geometry"/>
                </mxCell>
                <mxCell id="179" value="" style="shape=partialRectangle;connectable=0;fillColor=none;top=0;left=0;bottom=0;right=0;editable=1;overflow=hidden;whiteSpace=wrap;html=1;strokeColor=#FFFFFF;fontColor=#FFFFFF;" parent="178" vertex="1">
                    <mxGeometry width="30" height="30" as="geometry">
                        <mxRectangle width="30" height="30" as="alternateBounds"/>
                    </mxGeometry>
                </mxCell>
                <mxCell id="180" value="numVotes" style="shape=partialRectangle;connectable=0;fillColor=none;top=0;left=0;bottom=0;right=0;align=left;spacingLeft=6;overflow=hidden;whiteSpace=wrap;html=1;strokeColor=#FFFFFF;fontColor=#FFFFFF;" parent="178" vertex="1">
                    <mxGeometry x="30" width="198.12" height="30" as="geometry">
                        <mxRectangle width="198.12" height="30" as="alternateBounds"/>
                    </mxGeometry>
                </mxCell>
                <mxCell id="184" value="title_basics" style="shape=table;startSize=25;container=1;collapsible=1;childLayout=tableLayout;fixedRows=1;rowLines=0;fontStyle=1;align=center;resizeLast=1;html=1;strokeColor=#FFFFFF;fontColor=#1A1A1A;" parent="1" vertex="1">
                    <mxGeometry x="10" y="225" width="228.12" height="250" as="geometry"/>
                </mxCell>
                <mxCell id="185" value="" style="shape=tableRow;horizontal=0;startSize=0;swimlaneHead=0;swimlaneBody=0;fillColor=none;collapsible=0;dropTarget=0;points=[[0,0.5],[1,0.5]];portConstraint=eastwest;top=0;left=0;right=0;bottom=1;strokeColor=#FFFFFF;fontColor=#FFFFFF;" parent="184" vertex="1">
                    <mxGeometry y="25" width="228.12" height="40" as="geometry"/>
                </mxCell>
                <mxCell id="186" value="" style="shape=partialRectangle;connectable=0;fillColor=none;top=0;left=0;bottom=0;right=0;fontStyle=1;overflow=hidden;whiteSpace=wrap;html=1;strokeColor=#FFFFFF;fontColor=#FFFFFF;" parent="185" vertex="1">
                    <mxGeometry width="30" height="40" as="geometry">
                        <mxRectangle width="30" height="40" as="alternateBounds"/>
                    </mxGeometry>
                </mxCell>
                <mxCell id="187" value="tconst" style="shape=partialRectangle;connectable=0;fillColor=none;top=0;left=0;bottom=0;right=0;align=left;spacingLeft=6;fontStyle=5;overflow=hidden;whiteSpace=wrap;html=1;strokeColor=#FFFFFF;fontColor=#FFFFFF;" parent="185" vertex="1">
                    <mxGeometry x="30" width="198.12" height="40" as="geometry">
                        <mxRectangle width="198.12" height="40" as="alternateBounds"/>
                    </mxGeometry>
                </mxCell>
                <mxCell id="188" value="" style="shape=tableRow;horizontal=0;startSize=0;swimlaneHead=0;swimlaneBody=0;fillColor=none;collapsible=0;dropTarget=0;points=[[0,0.5],[1,0.5]];portConstraint=eastwest;top=0;left=0;right=0;bottom=0;strokeColor=#FFFFFF;fontColor=#FFFFFF;" parent="184" vertex="1">
                    <mxGeometry y="65" width="228.12" height="30" as="geometry"/>
                </mxCell>
                <mxCell id="189" value="" style="shape=partialRectangle;connectable=0;fillColor=none;top=0;left=0;bottom=0;right=0;editable=1;overflow=hidden;whiteSpace=wrap;html=1;strokeColor=#FFFFFF;fontColor=#FFFFFF;" parent="188" vertex="1">
                    <mxGeometry width="30" height="30" as="geometry">
                        <mxRectangle width="30" height="30" as="alternateBounds"/>
                    </mxGeometry>
                </mxCell>
                <mxCell id="190" value="titleType&lt;span style=&quot;white-space: pre;&quot;&gt;&#x9;&lt;/span&gt;" style="shape=partialRectangle;connectable=0;fillColor=none;top=0;left=0;bottom=0;right=0;align=left;spacingLeft=6;overflow=hidden;whiteSpace=wrap;html=1;strokeColor=#FFFFFF;fontColor=#FFFFFF;" parent="188" vertex="1">
                    <mxGeometry x="30" width="198.12" height="30" as="geometry">
                        <mxRectangle width="198.12" height="30" as="alternateBounds"/>
                    </mxGeometry>
                </mxCell>
                <mxCell id="191" value="" style="shape=tableRow;horizontal=0;startSize=0;swimlaneHead=0;swimlaneBody=0;fillColor=none;collapsible=0;dropTarget=0;points=[[0,0.5],[1,0.5]];portConstraint=eastwest;top=0;left=0;right=0;bottom=0;strokeColor=#FFFFFF;fontColor=#FFFFFF;" parent="184" vertex="1">
                    <mxGeometry y="95" width="228.12" height="30" as="geometry"/>
                </mxCell>
                <mxCell id="192" value="" style="shape=partialRectangle;connectable=0;fillColor=none;top=0;left=0;bottom=0;right=0;editable=1;overflow=hidden;whiteSpace=wrap;html=1;strokeColor=#FFFFFF;fontColor=#FFFFFF;" parent="191" vertex="1">
                    <mxGeometry width="30" height="30" as="geometry">
                        <mxRectangle width="30" height="30" as="alternateBounds"/>
                    </mxGeometry>
                </mxCell>
                <mxCell id="193" value="primary Title" style="shape=partialRectangle;connectable=0;fillColor=none;top=0;left=0;bottom=0;right=0;align=left;spacingLeft=6;overflow=hidden;whiteSpace=wrap;html=1;strokeColor=#FFFFFF;fontColor=#FFFFFF;" parent="191" vertex="1">
                    <mxGeometry x="30" width="198.12" height="30" as="geometry">
                        <mxRectangle width="198.12" height="30" as="alternateBounds"/>
                    </mxGeometry>
                </mxCell>
                <mxCell id="194" value="" style="shape=tableRow;horizontal=0;startSize=0;swimlaneHead=0;swimlaneBody=0;fillColor=none;collapsible=0;dropTarget=0;points=[[0,0.5],[1,0.5]];portConstraint=eastwest;top=0;left=0;right=0;bottom=0;strokeColor=#FFFFFF;fontColor=#FFFFFF;" parent="184" vertex="1">
                    <mxGeometry y="125" width="228.12" height="30" as="geometry"/>
                </mxCell>
                <mxCell id="195" value="" style="shape=partialRectangle;connectable=0;fillColor=none;top=0;left=0;bottom=0;right=0;editable=1;overflow=hidden;whiteSpace=wrap;html=1;strokeColor=#FFFFFF;fontColor=#FFFFFF;" parent="194" vertex="1">
                    <mxGeometry width="30" height="30" as="geometry">
                        <mxRectangle width="30" height="30" as="alternateBounds"/>
                    </mxGeometry>
                </mxCell>
                <mxCell id="196" value="isAdult" style="shape=partialRectangle;connectable=0;fillColor=none;top=0;left=0;bottom=0;right=0;align=left;spacingLeft=6;overflow=hidden;whiteSpace=wrap;html=1;strokeColor=#FFFFFF;fontColor=#FFFFFF;" parent="194" vertex="1">
                    <mxGeometry x="30" width="198.12" height="30" as="geometry">
                        <mxRectangle width="198.12" height="30" as="alternateBounds"/>
                    </mxGeometry>
                </mxCell>
                <mxCell id="197" value="" style="shape=tableRow;horizontal=0;startSize=0;swimlaneHead=0;swimlaneBody=0;fillColor=none;collapsible=0;dropTarget=0;points=[[0,0.5],[1,0.5]];portConstraint=eastwest;top=0;left=0;right=0;bottom=0;strokeColor=#FFFFFF;fontColor=#FFFFFF;" parent="184" vertex="1">
                    <mxGeometry y="155" width="228.12" height="30" as="geometry"/>
                </mxCell>
                <mxCell id="198" value="" style="shape=partialRectangle;connectable=0;fillColor=none;top=0;left=0;bottom=0;right=0;editable=1;overflow=hidden;whiteSpace=wrap;html=1;strokeColor=#FFFFFF;fontColor=#FFFFFF;" parent="197" vertex="1">
                    <mxGeometry width="30" height="30" as="geometry">
                        <mxRectangle width="30" height="30" as="alternateBounds"/>
                    </mxGeometry>
                </mxCell>
                <mxCell id="199" value="startYear" style="shape=partialRectangle;connectable=0;fillColor=none;top=0;left=0;bottom=0;right=0;align=left;spacingLeft=6;overflow=hidden;whiteSpace=wrap;html=1;strokeColor=#FFFFFF;fontColor=#FFFFFF;" parent="197" vertex="1">
                    <mxGeometry x="30" width="198.12" height="30" as="geometry">
                        <mxRectangle width="198.12" height="30" as="alternateBounds"/>
                    </mxGeometry>
                </mxCell>
                <mxCell id="200" value="" style="shape=tableRow;horizontal=0;startSize=0;swimlaneHead=0;swimlaneBody=0;fillColor=none;collapsible=0;dropTarget=0;points=[[0,0.5],[1,0.5]];portConstraint=eastwest;top=0;left=0;right=0;bottom=0;strokeColor=#FFFFFF;fontColor=#FFFFFF;" parent="184" vertex="1">
                    <mxGeometry y="185" width="228.12" height="30" as="geometry"/>
                </mxCell>
                <mxCell id="201" value="" style="shape=partialRectangle;connectable=0;fillColor=none;top=0;left=0;bottom=0;right=0;editable=1;overflow=hidden;whiteSpace=wrap;html=1;strokeColor=#FFFFFF;fontColor=#FFFFFF;" parent="200" vertex="1">
                    <mxGeometry width="30" height="30" as="geometry">
                        <mxRectangle width="30" height="30" as="alternateBounds"/>
                    </mxGeometry>
                </mxCell>
                <mxCell id="202" value="runtime" style="shape=partialRectangle;connectable=0;fillColor=none;top=0;left=0;bottom=0;right=0;align=left;spacingLeft=6;overflow=hidden;whiteSpace=wrap;html=1;strokeColor=#FFFFFF;fontColor=#FFFFFF;" parent="200" vertex="1">
                    <mxGeometry x="30" width="198.12" height="30" as="geometry">
                        <mxRectangle width="198.12" height="30" as="alternateBounds"/>
                    </mxGeometry>
                </mxCell>
                <mxCell id="203" value="" style="shape=tableRow;horizontal=0;startSize=0;swimlaneHead=0;swimlaneBody=0;fillColor=none;collapsible=0;dropTarget=0;points=[[0,0.5],[1,0.5]];portConstraint=eastwest;top=0;left=0;right=0;bottom=0;strokeColor=#FFFFFF;fontColor=#FFFFFF;" parent="184" vertex="1">
                    <mxGeometry y="215" width="228.12" height="30" as="geometry"/>
                </mxCell>
                <mxCell id="204" value="" style="shape=partialRectangle;connectable=0;fillColor=none;top=0;left=0;bottom=0;right=0;editable=1;overflow=hidden;whiteSpace=wrap;html=1;strokeColor=#FFFFFF;fontColor=#FFFFFF;" parent="203" vertex="1">
                    <mxGeometry width="30" height="30" as="geometry">
                        <mxRectangle width="30" height="30" as="alternateBounds"/>
                    </mxGeometry>
                </mxCell>
                <mxCell id="205" value="genres" style="shape=partialRectangle;connectable=0;fillColor=none;top=0;left=0;bottom=0;right=0;align=left;spacingLeft=6;overflow=hidden;whiteSpace=wrap;html=1;strokeColor=#FFFFFF;fontColor=#FFFFFF;" parent="203" vertex="1">
                    <mxGeometry x="30" width="198.12" height="30" as="geometry">
                        <mxRectangle width="198.12" height="30" as="alternateBounds"/>
                    </mxGeometry>
                </mxCell>
                <mxCell id="208" value="fact_tale" style="shape=table;startSize=30;container=1;collapsible=1;childLayout=tableLayout;fixedRows=1;rowLines=0;fontStyle=1;align=center;resizeLast=1;html=1;strokeColor=#FFFFFF;fontColor=#1A1A1A;" parent="1" vertex="1">
                    <mxGeometry x="1650" y="365" width="248.12" height="280" as="geometry"/>
                </mxCell>
                <mxCell id="209" value="" style="shape=tableRow;horizontal=0;startSize=0;swimlaneHead=0;swimlaneBody=0;fillColor=none;collapsible=0;dropTarget=0;points=[[0,0.5],[1,0.5]];portConstraint=eastwest;top=0;left=0;right=0;bottom=1;strokeColor=#FFFFFF;fontColor=#FFFFFF;" parent="208" vertex="1">
                    <mxGeometry y="30" width="248.12" height="40" as="geometry"/>
                </mxCell>
                <mxCell id="210" value="PK" style="shape=partialRectangle;connectable=0;fillColor=none;top=0;left=0;bottom=0;right=0;fontStyle=1;overflow=hidden;whiteSpace=wrap;html=1;strokeColor=#FFFFFF;fontColor=#FFFFFF;" parent="209" vertex="1">
                    <mxGeometry width="30" height="40" as="geometry">
                        <mxRectangle width="30" height="40" as="alternateBounds"/>
                    </mxGeometry>
                </mxCell>
                <mxCell id="211" value="Log id&lt;span style=&quot;white-space: pre;&quot;&gt;&#x9;&lt;/span&gt;" style="shape=partialRectangle;connectable=0;fillColor=none;top=0;left=0;bottom=0;right=0;align=left;spacingLeft=6;fontStyle=5;overflow=hidden;whiteSpace=wrap;html=1;strokeColor=#FFFFFF;fontColor=#FFFFFF;" parent="209" vertex="1">
                    <mxGeometry x="30" width="218.12" height="40" as="geometry">
                        <mxRectangle width="218.12" height="40" as="alternateBounds"/>
                    </mxGeometry>
                </mxCell>
                <mxCell id="212" value="" style="shape=tableRow;horizontal=0;startSize=0;swimlaneHead=0;swimlaneBody=0;fillColor=none;collapsible=0;dropTarget=0;points=[[0,0.5],[1,0.5]];portConstraint=eastwest;top=0;left=0;right=0;bottom=0;strokeColor=#FFFFFF;fontColor=#FFFFFF;" parent="208" vertex="1">
                    <mxGeometry y="70" width="248.12" height="30" as="geometry"/>
                </mxCell>
                <mxCell id="213" value="FK" style="shape=partialRectangle;connectable=0;fillColor=none;top=0;left=0;bottom=0;right=0;editable=1;overflow=hidden;whiteSpace=wrap;html=1;strokeColor=#FFFFFF;fontColor=#FFFFFF;" parent="212" vertex="1">
                    <mxGeometry width="30" height="30" as="geometry">
                        <mxRectangle width="30" height="30" as="alternateBounds"/>
                    </mxGeometry>
                </mxCell>
                <mxCell id="214" value="id_user" style="shape=partialRectangle;connectable=0;fillColor=none;top=0;left=0;bottom=0;right=0;align=left;spacingLeft=6;overflow=hidden;whiteSpace=wrap;html=1;strokeColor=#FFFFFF;fontColor=#FFFFFF;" parent="212" vertex="1">
                    <mxGeometry x="30" width="218.12" height="30" as="geometry">
                        <mxRectangle width="218.12" height="30" as="alternateBounds"/>
                    </mxGeometry>
                </mxCell>
                <mxCell id="215" value="" style="shape=tableRow;horizontal=0;startSize=0;swimlaneHead=0;swimlaneBody=0;fillColor=none;collapsible=0;dropTarget=0;points=[[0,0.5],[1,0.5]];portConstraint=eastwest;top=0;left=0;right=0;bottom=0;strokeColor=#FFFFFF;fontColor=#FFFFFF;" parent="208" vertex="1">
                    <mxGeometry y="100" width="248.12" height="30" as="geometry"/>
                </mxCell>
                <mxCell id="216" value="&lt;span style=&quot;color: rgb(255, 255, 255);&quot;&gt;FK&lt;/span&gt;" style="shape=partialRectangle;connectable=0;fillColor=none;top=0;left=0;bottom=0;right=0;editable=1;overflow=hidden;whiteSpace=wrap;html=1;strokeColor=#FFFFFF;fontColor=#FFFFFF;" parent="215" vertex="1">
                    <mxGeometry width="30" height="30" as="geometry">
                        <mxRectangle width="30" height="30" as="alternateBounds"/>
                    </mxGeometry>
                </mxCell>
                <mxCell id="217" value="id_title" style="shape=partialRectangle;connectable=0;fillColor=none;top=0;left=0;bottom=0;right=0;align=left;spacingLeft=6;overflow=hidden;whiteSpace=wrap;html=1;strokeColor=#FFFFFF;fontColor=#FFFFFF;" parent="215" vertex="1">
                    <mxGeometry x="30" width="218.12" height="30" as="geometry">
                        <mxRectangle width="218.12" height="30" as="alternateBounds"/>
                    </mxGeometry>
                </mxCell>
                <mxCell id="218" value="" style="shape=tableRow;horizontal=0;startSize=0;swimlaneHead=0;swimlaneBody=0;fillColor=none;collapsible=0;dropTarget=0;points=[[0,0.5],[1,0.5]];portConstraint=eastwest;top=0;left=0;right=0;bottom=0;strokeColor=#FFFFFF;fontColor=#FFFFFF;" parent="208" vertex="1">
                    <mxGeometry y="130" width="248.12" height="30" as="geometry"/>
                </mxCell>
                <mxCell id="219" value="" style="shape=partialRectangle;connectable=0;fillColor=none;top=0;left=0;bottom=0;right=0;editable=1;overflow=hidden;whiteSpace=wrap;html=1;strokeColor=#FFFFFF;fontColor=#FFFFFF;" parent="218" vertex="1">
                    <mxGeometry width="30" height="30" as="geometry">
                        <mxRectangle width="30" height="30" as="alternateBounds"/>
                    </mxGeometry>
                </mxCell>
                <mxCell id="220" value="session_start" style="shape=partialRectangle;connectable=0;fillColor=none;top=0;left=0;bottom=0;right=0;align=left;spacingLeft=6;overflow=hidden;whiteSpace=wrap;html=1;strokeColor=#FFFFFF;fontColor=#FFFFFF;" parent="218" vertex="1">
                    <mxGeometry x="30" width="218.12" height="30" as="geometry">
                        <mxRectangle width="218.12" height="30" as="alternateBounds"/>
                    </mxGeometry>
                </mxCell>
                <mxCell id="221" value="" style="shape=tableRow;horizontal=0;startSize=0;swimlaneHead=0;swimlaneBody=0;fillColor=none;collapsible=0;dropTarget=0;points=[[0,0.5],[1,0.5]];portConstraint=eastwest;top=0;left=0;right=0;bottom=0;strokeColor=#FFFFFF;fontColor=#FFFFFF;" parent="208" vertex="1">
                    <mxGeometry y="160" width="248.12" height="30" as="geometry"/>
                </mxCell>
                <mxCell id="222" value="" style="shape=partialRectangle;connectable=0;fillColor=none;top=0;left=0;bottom=0;right=0;editable=1;overflow=hidden;whiteSpace=wrap;html=1;strokeColor=#FFFFFF;fontColor=#FFFFFF;" parent="221" vertex="1">
                    <mxGeometry width="30" height="30" as="geometry">
                        <mxRectangle width="30" height="30" as="alternateBounds"/>
                    </mxGeometry>
                </mxCell>
                <mxCell id="223" value="session_end" style="shape=partialRectangle;connectable=0;fillColor=none;top=0;left=0;bottom=0;right=0;align=left;spacingLeft=6;overflow=hidden;whiteSpace=wrap;html=1;strokeColor=#FFFFFF;fontColor=#FFFFFF;" parent="221" vertex="1">
                    <mxGeometry x="30" width="218.12" height="30" as="geometry">
                        <mxRectangle width="218.12" height="30" as="alternateBounds"/>
                    </mxGeometry>
                </mxCell>
                <mxCell id="224" value="" style="shape=tableRow;horizontal=0;startSize=0;swimlaneHead=0;swimlaneBody=0;fillColor=none;collapsible=0;dropTarget=0;points=[[0,0.5],[1,0.5]];portConstraint=eastwest;top=0;left=0;right=0;bottom=0;strokeColor=#FFFFFF;fontColor=#FFFFFF;" parent="208" vertex="1">
                    <mxGeometry y="190" width="248.12" height="30" as="geometry"/>
                </mxCell>
                <mxCell id="225" value="" style="shape=partialRectangle;connectable=0;fillColor=none;top=0;left=0;bottom=0;right=0;editable=1;overflow=hidden;whiteSpace=wrap;html=1;strokeColor=#FFFFFF;fontColor=#FFFFFF;" parent="224" vertex="1">
                    <mxGeometry width="30" height="30" as="geometry">
                        <mxRectangle width="30" height="30" as="alternateBounds"/>
                    </mxGeometry>
                </mxCell>
                <mxCell id="226" value="rating_given" style="shape=partialRectangle;connectable=0;fillColor=none;top=0;left=0;bottom=0;right=0;align=left;spacingLeft=6;overflow=hidden;whiteSpace=wrap;html=1;strokeColor=#FFFFFF;fontColor=#FFFFFF;" parent="224" vertex="1">
                    <mxGeometry x="30" width="218.12" height="30" as="geometry">
                        <mxRectangle width="218.12" height="30" as="alternateBounds"/>
                    </mxGeometry>
                </mxCell>
                <mxCell id="227" value="" style="shape=tableRow;horizontal=0;startSize=0;swimlaneHead=0;swimlaneBody=0;fillColor=none;collapsible=0;dropTarget=0;points=[[0,0.5],[1,0.5]];portConstraint=eastwest;top=0;left=0;right=0;bottom=0;strokeColor=#FFFFFF;fontColor=#FFFFFF;" parent="208" vertex="1">
                    <mxGeometry y="220" width="248.12" height="30" as="geometry"/>
                </mxCell>
                <mxCell id="228" value="FK" style="shape=partialRectangle;connectable=0;fillColor=none;top=0;left=0;bottom=0;right=0;editable=1;overflow=hidden;whiteSpace=wrap;html=1;strokeColor=#FFFFFF;fontColor=#FFFFFF;" parent="227" vertex="1">
                    <mxGeometry width="30" height="30" as="geometry">
                        <mxRectangle width="30" height="30" as="alternateBounds"/>
                    </mxGeometry>
                </mxCell>
                <mxCell id="229" value="id_reaction" style="shape=partialRectangle;connectable=0;fillColor=none;top=0;left=0;bottom=0;right=0;align=left;spacingLeft=6;overflow=hidden;whiteSpace=wrap;html=1;strokeColor=#FFFFFF;fontColor=#FFFFFF;" parent="227" vertex="1">
                    <mxGeometry x="30" width="218.12" height="30" as="geometry">
                        <mxRectangle width="218.12" height="30" as="alternateBounds"/>
                    </mxGeometry>
                </mxCell>
                <mxCell id="230" value="" style="shape=tableRow;horizontal=0;startSize=0;swimlaneHead=0;swimlaneBody=0;fillColor=none;collapsible=0;dropTarget=0;points=[[0,0.5],[1,0.5]];portConstraint=eastwest;top=0;left=0;right=0;bottom=0;strokeColor=#FFFFFF;fontColor=#FFFFFF;" parent="208" vertex="1">
                    <mxGeometry y="250" width="248.12" height="30" as="geometry"/>
                </mxCell>
                <mxCell id="231" value="&lt;span style=&quot;color: rgb(255, 255, 255);&quot;&gt;FK&lt;/span&gt;" style="shape=partialRectangle;connectable=0;fillColor=none;top=0;left=0;bottom=0;right=0;editable=1;overflow=hidden;whiteSpace=wrap;html=1;strokeColor=#FFFFFF;fontColor=#FFFFFF;" parent="230" vertex="1">
                    <mxGeometry width="30" height="30" as="geometry">
                        <mxRectangle width="30" height="30" as="alternateBounds"/>
                    </mxGeometry>
                </mxCell>
                <mxCell id="232" value="id_region" style="shape=partialRectangle;connectable=0;fillColor=none;top=0;left=0;bottom=0;right=0;align=left;spacingLeft=6;overflow=hidden;whiteSpace=wrap;html=1;strokeColor=#FFFFFF;fontColor=#FFFFFF;" parent="230" vertex="1">
                    <mxGeometry x="30" width="218.12" height="30" as="geometry">
                        <mxRectangle width="218.12" height="30" as="alternateBounds"/>
                    </mxGeometry>
                </mxCell>
                <mxCell id="238" value="dim_users" style="shape=table;startSize=30;container=1;collapsible=1;childLayout=tableLayout;fixedRows=1;rowLines=0;fontStyle=1;align=center;resizeLast=1;html=1;strokeColor=#FFFFFF;fontColor=#1A1A1A;" parent="1" vertex="1">
                    <mxGeometry x="1960" y="105" width="250" height="250" as="geometry"/>
                </mxCell>
                <mxCell id="239" value="" style="shape=tableRow;horizontal=0;startSize=0;swimlaneHead=0;swimlaneBody=0;fillColor=none;collapsible=0;dropTarget=0;points=[[0,0.5],[1,0.5]];portConstraint=eastwest;top=0;left=0;right=0;bottom=1;strokeColor=#FFFFFF;fontColor=#FFFFFF;" parent="238" vertex="1">
                    <mxGeometry y="30" width="250" height="40" as="geometry"/>
                </mxCell>
                <mxCell id="240" value="PK" style="shape=partialRectangle;connectable=0;fillColor=none;top=0;left=0;bottom=0;right=0;fontStyle=1;overflow=hidden;whiteSpace=wrap;html=1;strokeColor=#FFFFFF;fontColor=#FFFFFF;" parent="239" vertex="1">
                    <mxGeometry width="30" height="40" as="geometry">
                        <mxRectangle width="30" height="40" as="alternateBounds"/>
                    </mxGeometry>
                </mxCell>
                <mxCell id="241" value="id_user" style="shape=partialRectangle;connectable=0;fillColor=none;top=0;left=0;bottom=0;right=0;align=left;spacingLeft=6;fontStyle=5;overflow=hidden;whiteSpace=wrap;html=1;strokeColor=#FFFFFF;fontColor=#FFFFFF;" parent="239" vertex="1">
                    <mxGeometry x="30" width="220" height="40" as="geometry">
                        <mxRectangle width="220" height="40" as="alternateBounds"/>
                    </mxGeometry>
                </mxCell>
                <mxCell id="242" value="" style="shape=tableRow;horizontal=0;startSize=0;swimlaneHead=0;swimlaneBody=0;fillColor=none;collapsible=0;dropTarget=0;points=[[0,0.5],[1,0.5]];portConstraint=eastwest;top=0;left=0;right=0;bottom=0;strokeColor=#FFFFFF;fontColor=#FFFFFF;" parent="238" vertex="1">
                    <mxGeometry y="70" width="250" height="30" as="geometry"/>
                </mxCell>
                <mxCell id="243" value="" style="shape=partialRectangle;connectable=0;fillColor=none;top=0;left=0;bottom=0;right=0;editable=1;overflow=hidden;whiteSpace=wrap;html=1;strokeColor=#FFFFFF;fontColor=#FFFFFF;" parent="242" vertex="1">
                    <mxGeometry width="30" height="30" as="geometry">
                        <mxRectangle width="30" height="30" as="alternateBounds"/>
                    </mxGeometry>
                </mxCell>
                <mxCell id="244" value="first_name&lt;span style=&quot;white-space: pre;&quot;&gt;&#x9;&lt;/span&gt;" style="shape=partialRectangle;connectable=0;fillColor=none;top=0;left=0;bottom=0;right=0;align=left;spacingLeft=6;overflow=hidden;whiteSpace=wrap;html=1;strokeColor=#FFFFFF;fontColor=#FFFFFF;" parent="242" vertex="1">
                    <mxGeometry x="30" width="220" height="30" as="geometry">
                        <mxRectangle width="220" height="30" as="alternateBounds"/>
                    </mxGeometry>
                </mxCell>
                <mxCell id="245" value="" style="shape=tableRow;horizontal=0;startSize=0;swimlaneHead=0;swimlaneBody=0;fillColor=none;collapsible=0;dropTarget=0;points=[[0,0.5],[1,0.5]];portConstraint=eastwest;top=0;left=0;right=0;bottom=0;strokeColor=#FFFFFF;fontColor=#FFFFFF;" parent="238" vertex="1">
                    <mxGeometry y="100" width="250" height="30" as="geometry"/>
                </mxCell>
                <mxCell id="246" value="" style="shape=partialRectangle;connectable=0;fillColor=none;top=0;left=0;bottom=0;right=0;editable=1;overflow=hidden;whiteSpace=wrap;html=1;strokeColor=#FFFFFF;fontColor=#FFFFFF;" parent="245" vertex="1">
                    <mxGeometry width="30" height="30" as="geometry">
                        <mxRectangle width="30" height="30" as="alternateBounds"/>
                    </mxGeometry>
                </mxCell>
                <mxCell id="247" value="last_name" style="shape=partialRectangle;connectable=0;fillColor=none;top=0;left=0;bottom=0;right=0;align=left;spacingLeft=6;overflow=hidden;whiteSpace=wrap;html=1;strokeColor=#FFFFFF;fontColor=#FFFFFF;" parent="245" vertex="1">
                    <mxGeometry x="30" width="220" height="30" as="geometry">
                        <mxRectangle width="220" height="30" as="alternateBounds"/>
                    </mxGeometry>
                </mxCell>
                <mxCell id="248" value="" style="shape=tableRow;horizontal=0;startSize=0;swimlaneHead=0;swimlaneBody=0;fillColor=none;collapsible=0;dropTarget=0;points=[[0,0.5],[1,0.5]];portConstraint=eastwest;top=0;left=0;right=0;bottom=0;strokeColor=#FFFFFF;fontColor=#FFFFFF;" parent="238" vertex="1">
                    <mxGeometry y="130" width="250" height="30" as="geometry"/>
                </mxCell>
                <mxCell id="249" value="" style="shape=partialRectangle;connectable=0;fillColor=none;top=0;left=0;bottom=0;right=0;editable=1;overflow=hidden;whiteSpace=wrap;html=1;strokeColor=#FFFFFF;fontColor=#FFFFFF;" parent="248" vertex="1">
                    <mxGeometry width="30" height="30" as="geometry">
                        <mxRectangle width="30" height="30" as="alternateBounds"/>
                    </mxGeometry>
                </mxCell>
                <mxCell id="250" value="birth_date" style="shape=partialRectangle;connectable=0;fillColor=none;top=0;left=0;bottom=0;right=0;align=left;spacingLeft=6;overflow=hidden;whiteSpace=wrap;html=1;strokeColor=#FFFFFF;fontColor=#FFFFFF;" parent="248" vertex="1">
                    <mxGeometry x="30" width="220" height="30" as="geometry">
                        <mxRectangle width="220" height="30" as="alternateBounds"/>
                    </mxGeometry>
                </mxCell>
                <mxCell id="233" value="" style="shape=tableRow;horizontal=0;startSize=0;swimlaneHead=0;swimlaneBody=0;fillColor=none;collapsible=0;dropTarget=0;points=[[0,0.5],[1,0.5]];portConstraint=eastwest;top=0;left=0;right=0;bottom=0;strokeColor=#FFFFFF;fontColor=#FFFFFF;" parent="238" vertex="1">
                    <mxGeometry y="160" width="250" height="30" as="geometry"/>
                </mxCell>
                <mxCell id="234" value="&lt;span style=&quot;color: rgb(255, 255, 255);&quot;&gt;FK&lt;/span&gt;" style="shape=partialRectangle;connectable=0;fillColor=none;top=0;left=0;bottom=0;right=0;editable=1;overflow=hidden;whiteSpace=wrap;html=1;strokeColor=#FFFFFF;fontColor=#FFFFFF;" parent="233" vertex="1">
                    <mxGeometry width="30" height="30" as="geometry">
                        <mxRectangle width="30" height="30" as="alternateBounds"/>
                    </mxGeometry>
                </mxCell>
                <mxCell id="235" value="id_scubscription" style="shape=partialRectangle;connectable=0;fillColor=none;top=0;left=0;bottom=0;right=0;align=left;spacingLeft=6;overflow=hidden;whiteSpace=wrap;html=1;strokeColor=#FFFFFF;fontColor=#FFFFFF;" parent="233" vertex="1">
                    <mxGeometry x="30" width="220" height="30" as="geometry">
                        <mxRectangle width="220" height="30" as="alternateBounds"/>
                    </mxGeometry>
                </mxCell>
                <mxCell id="254" value="" style="shape=tableRow;horizontal=0;startSize=0;swimlaneHead=0;swimlaneBody=0;fillColor=none;collapsible=0;dropTarget=0;points=[[0,0.5],[1,0.5]];portConstraint=eastwest;top=0;left=0;right=0;bottom=0;strokeColor=#FFFFFF;fontColor=#FFFFFF;" parent="238" vertex="1">
                    <mxGeometry y="190" width="250" height="30" as="geometry"/>
                </mxCell>
                <mxCell id="255" value="" style="shape=partialRectangle;connectable=0;fillColor=none;top=0;left=0;bottom=0;right=0;editable=1;overflow=hidden;whiteSpace=wrap;html=1;strokeColor=#FFFFFF;fontColor=#FFFFFF;" parent="254" vertex="1">
                    <mxGeometry width="30" height="30" as="geometry">
                        <mxRectangle width="30" height="30" as="alternateBounds"/>
                    </mxGeometry>
                </mxCell>
                <mxCell id="256" value="subscription_start_date" style="shape=partialRectangle;connectable=0;fillColor=none;top=0;left=0;bottom=0;right=0;align=left;spacingLeft=6;overflow=hidden;whiteSpace=wrap;html=1;strokeColor=#FFFFFF;fontColor=#FFFFFF;" parent="254" vertex="1">
                    <mxGeometry x="30" width="220" height="30" as="geometry">
                        <mxRectangle width="220" height="30" as="alternateBounds"/>
                    </mxGeometry>
                </mxCell>
                <mxCell id="257" value="" style="shape=tableRow;horizontal=0;startSize=0;swimlaneHead=0;swimlaneBody=0;fillColor=none;collapsible=0;dropTarget=0;points=[[0,0.5],[1,0.5]];portConstraint=eastwest;top=0;left=0;right=0;bottom=0;strokeColor=#FFFFFF;fontColor=#FFFFFF;" parent="238" vertex="1">
                    <mxGeometry y="220" width="250" height="30" as="geometry"/>
                </mxCell>
                <mxCell id="258" value="" style="shape=partialRectangle;connectable=0;fillColor=none;top=0;left=0;bottom=0;right=0;editable=1;overflow=hidden;whiteSpace=wrap;html=1;strokeColor=#FFFFFF;fontColor=#FFFFFF;" parent="257" vertex="1">
                    <mxGeometry width="30" height="30" as="geometry">
                        <mxRectangle width="30" height="30" as="alternateBounds"/>
                    </mxGeometry>
                </mxCell>
                <mxCell id="259" value="iban" style="shape=partialRectangle;connectable=0;fillColor=none;top=0;left=0;bottom=0;right=0;align=left;spacingLeft=6;overflow=hidden;whiteSpace=wrap;html=1;strokeColor=#FFFFFF;fontColor=#FFFFFF;" parent="257" vertex="1">
                    <mxGeometry x="30" width="220" height="30" as="geometry">
                        <mxRectangle width="220" height="30" as="alternateBounds"/>
                    </mxGeometry>
                </mxCell>
                <mxCell id="266" value="dim_titles" style="shape=table;startSize=25;container=1;collapsible=1;childLayout=tableLayout;fixedRows=1;rowLines=0;fontStyle=1;align=center;resizeLast=1;html=1;strokeColor=#FFFFFF;fontColor=#1A1A1A;" parent="1" vertex="1">
                    <mxGeometry x="1960" y="735" width="228.12" height="310" as="geometry"/>
                </mxCell>
                <mxCell id="267" value="" style="shape=tableRow;horizontal=0;startSize=0;swimlaneHead=0;swimlaneBody=0;fillColor=none;collapsible=0;dropTarget=0;points=[[0,0.5],[1,0.5]];portConstraint=eastwest;top=0;left=0;right=0;bottom=1;strokeColor=#FFFFFF;fontColor=#FFFFFF;" parent="266" vertex="1">
                    <mxGeometry y="25" width="228.12" height="40" as="geometry"/>
                </mxCell>
                <mxCell id="268" value="PK" style="shape=partialRectangle;connectable=0;fillColor=none;top=0;left=0;bottom=0;right=0;fontStyle=1;overflow=hidden;whiteSpace=wrap;html=1;strokeColor=#FFFFFF;fontColor=#FFFFFF;" parent="267" vertex="1">
                    <mxGeometry width="30" height="40" as="geometry">
                        <mxRectangle width="30" height="40" as="alternateBounds"/>
                    </mxGeometry>
                </mxCell>
                <mxCell id="269" value="id_title" style="shape=partialRectangle;connectable=0;fillColor=none;top=0;left=0;bottom=0;right=0;align=left;spacingLeft=6;fontStyle=5;overflow=hidden;whiteSpace=wrap;html=1;strokeColor=#FFFFFF;fontColor=#FFFFFF;" parent="267" vertex="1">
                    <mxGeometry x="30" width="198.12" height="40" as="geometry">
                        <mxRectangle width="198.12" height="40" as="alternateBounds"/>
                    </mxGeometry>
                </mxCell>
                <mxCell id="273" value="" style="shape=tableRow;horizontal=0;startSize=0;swimlaneHead=0;swimlaneBody=0;fillColor=none;collapsible=0;dropTarget=0;points=[[0,0.5],[1,0.5]];portConstraint=eastwest;top=0;left=0;right=0;bottom=0;strokeColor=#FFFFFF;fontColor=#FFFFFF;" parent="266" vertex="1">
                    <mxGeometry y="65" width="228.12" height="30" as="geometry"/>
                </mxCell>
                <mxCell id="274" value="" style="shape=partialRectangle;connectable=0;fillColor=none;top=0;left=0;bottom=0;right=0;editable=1;overflow=hidden;whiteSpace=wrap;html=1;strokeColor=#FFFFFF;fontColor=#FFFFFF;" parent="273" vertex="1">
                    <mxGeometry width="30" height="30" as="geometry">
                        <mxRectangle width="30" height="30" as="alternateBounds"/>
                    </mxGeometry>
                </mxCell>
                <mxCell id="275" value="title_name" style="shape=partialRectangle;connectable=0;fillColor=none;top=0;left=0;bottom=0;right=0;align=left;spacingLeft=6;overflow=hidden;whiteSpace=wrap;html=1;strokeColor=#FFFFFF;fontColor=#FFFFFF;" parent="273" vertex="1">
                    <mxGeometry x="30" width="198.12" height="30" as="geometry">
                        <mxRectangle width="198.12" height="30" as="alternateBounds"/>
                    </mxGeometry>
                </mxCell>
                <mxCell id="276" value="" style="shape=tableRow;horizontal=0;startSize=0;swimlaneHead=0;swimlaneBody=0;fillColor=none;collapsible=0;dropTarget=0;points=[[0,0.5],[1,0.5]];portConstraint=eastwest;top=0;left=0;right=0;bottom=0;strokeColor=#FFFFFF;fontColor=#FFFFFF;" parent="266" vertex="1">
                    <mxGeometry y="95" width="228.12" height="30" as="geometry"/>
                </mxCell>
                <mxCell id="277" value="" style="shape=partialRectangle;connectable=0;fillColor=none;top=0;left=0;bottom=0;right=0;editable=1;overflow=hidden;whiteSpace=wrap;html=1;strokeColor=#FFFFFF;fontColor=#FFFFFF;" parent="276" vertex="1">
                    <mxGeometry width="30" height="30" as="geometry">
                        <mxRectangle width="30" height="30" as="alternateBounds"/>
                    </mxGeometry>
                </mxCell>
                <mxCell id="278" value="title_director_first_name" style="shape=partialRectangle;connectable=0;fillColor=none;top=0;left=0;bottom=0;right=0;align=left;spacingLeft=6;overflow=hidden;whiteSpace=wrap;html=1;strokeColor=#FFFFFF;fontColor=#FFFFFF;" parent="276" vertex="1">
                    <mxGeometry x="30" width="198.12" height="30" as="geometry">
                        <mxRectangle width="198.12" height="30" as="alternateBounds"/>
                    </mxGeometry>
                </mxCell>
                <mxCell id="345" value="" style="shape=tableRow;horizontal=0;startSize=0;swimlaneHead=0;swimlaneBody=0;fillColor=none;collapsible=0;dropTarget=0;points=[[0,0.5],[1,0.5]];portConstraint=eastwest;top=0;left=0;right=0;bottom=0;strokeColor=#FFFFFF;fontColor=#FFFFFF;" parent="266" vertex="1">
                    <mxGeometry y="125" width="228.12" height="30" as="geometry"/>
                </mxCell>
                <mxCell id="346" value="" style="shape=partialRectangle;connectable=0;fillColor=none;top=0;left=0;bottom=0;right=0;editable=1;overflow=hidden;whiteSpace=wrap;html=1;strokeColor=#FFFFFF;fontColor=#FFFFFF;" parent="345" vertex="1">
                    <mxGeometry width="30" height="30" as="geometry">
                        <mxRectangle width="30" height="30" as="alternateBounds"/>
                    </mxGeometry>
                </mxCell>
                <mxCell id="347" value="title_director_last_name" style="shape=partialRectangle;connectable=0;fillColor=none;top=0;left=0;bottom=0;right=0;align=left;spacingLeft=6;overflow=hidden;whiteSpace=wrap;html=1;strokeColor=#FFFFFF;fontColor=#FFFFFF;" parent="345" vertex="1">
                    <mxGeometry x="30" width="198.12" height="30" as="geometry">
                        <mxRectangle width="198.12" height="30" as="alternateBounds"/>
                    </mxGeometry>
                </mxCell>
                <mxCell id="270" value="" style="shape=tableRow;horizontal=0;startSize=0;swimlaneHead=0;swimlaneBody=0;fillColor=none;collapsible=0;dropTarget=0;points=[[0,0.5],[1,0.5]];portConstraint=eastwest;top=0;left=0;right=0;bottom=0;strokeColor=#FFFFFF;fontColor=#FFFFFF;" parent="266" vertex="1">
                    <mxGeometry y="155" width="228.12" height="30" as="geometry"/>
                </mxCell>
                <mxCell id="271" value="" style="shape=partialRectangle;connectable=0;fillColor=none;top=0;left=0;bottom=0;right=0;editable=1;overflow=hidden;whiteSpace=wrap;html=1;strokeColor=#FFFFFF;fontColor=#FFFFFF;" parent="270" vertex="1">
                    <mxGeometry width="30" height="30" as="geometry">
                        <mxRectangle width="30" height="30" as="alternateBounds"/>
                    </mxGeometry>
                </mxCell>
                <mxCell id="272" value="title_type" style="shape=partialRectangle;connectable=0;fillColor=none;top=0;left=0;bottom=0;right=0;align=left;spacingLeft=6;overflow=hidden;whiteSpace=wrap;html=1;strokeColor=#FFFFFF;fontColor=#FFFFFF;" parent="270" vertex="1">
                    <mxGeometry x="30" width="198.12" height="30" as="geometry">
                        <mxRectangle width="198.12" height="30" as="alternateBounds"/>
                    </mxGeometry>
                </mxCell>
                <mxCell id="279" value="" style="shape=tableRow;horizontal=0;startSize=0;swimlaneHead=0;swimlaneBody=0;fillColor=none;collapsible=0;dropTarget=0;points=[[0,0.5],[1,0.5]];portConstraint=eastwest;top=0;left=0;right=0;bottom=0;strokeColor=#FFFFFF;fontColor=#FFFFFF;" parent="266" vertex="1">
                    <mxGeometry y="185" width="228.12" height="30" as="geometry"/>
                </mxCell>
                <mxCell id="280" value="" style="shape=partialRectangle;connectable=0;fillColor=none;top=0;left=0;bottom=0;right=0;editable=1;overflow=hidden;whiteSpace=wrap;html=1;strokeColor=#FFFFFF;fontColor=#FFFFFF;" parent="279" vertex="1">
                    <mxGeometry width="30" height="30" as="geometry">
                        <mxRectangle width="30" height="30" as="alternateBounds"/>
                    </mxGeometry>
                </mxCell>
                <mxCell id="281" value="title_startYear" style="shape=partialRectangle;connectable=0;fillColor=none;top=0;left=0;bottom=0;right=0;align=left;spacingLeft=6;overflow=hidden;whiteSpace=wrap;html=1;strokeColor=#FFFFFF;fontColor=#FFFFFF;" parent="279" vertex="1">
                    <mxGeometry x="30" width="198.12" height="30" as="geometry">
                        <mxRectangle width="198.12" height="30" as="alternateBounds"/>
                    </mxGeometry>
                </mxCell>
                <mxCell id="282" value="" style="shape=tableRow;horizontal=0;startSize=0;swimlaneHead=0;swimlaneBody=0;fillColor=none;collapsible=0;dropTarget=0;points=[[0,0.5],[1,0.5]];portConstraint=eastwest;top=0;left=0;right=0;bottom=0;strokeColor=#FFFFFF;fontColor=#FFFFFF;" parent="266" vertex="1">
                    <mxGeometry y="215" width="228.12" height="30" as="geometry"/>
                </mxCell>
                <mxCell id="283" value="" style="shape=partialRectangle;connectable=0;fillColor=none;top=0;left=0;bottom=0;right=0;editable=1;overflow=hidden;whiteSpace=wrap;html=1;strokeColor=#FFFFFF;fontColor=#FFFFFF;" parent="282" vertex="1">
                    <mxGeometry width="30" height="30" as="geometry">
                        <mxRectangle width="30" height="30" as="alternateBounds"/>
                    </mxGeometry>
                </mxCell>
                <mxCell id="284" value="title_duration" style="shape=partialRectangle;connectable=0;fillColor=none;top=0;left=0;bottom=0;right=0;align=left;spacingLeft=6;overflow=hidden;whiteSpace=wrap;html=1;strokeColor=#FFFFFF;fontColor=#FFFFFF;" parent="282" vertex="1">
                    <mxGeometry x="30" width="198.12" height="30" as="geometry">
                        <mxRectangle width="198.12" height="30" as="alternateBounds"/>
                    </mxGeometry>
                </mxCell>
                <mxCell id="289" value="" style="shape=tableRow;horizontal=0;startSize=0;swimlaneHead=0;swimlaneBody=0;fillColor=none;collapsible=0;dropTarget=0;points=[[0,0.5],[1,0.5]];portConstraint=eastwest;top=0;left=0;right=0;bottom=0;strokeColor=#FFFFFF;fontColor=#FFFFFF;" parent="266" vertex="1">
                    <mxGeometry y="245" width="228.12" height="30" as="geometry"/>
                </mxCell>
                <mxCell id="290" value="" style="shape=partialRectangle;connectable=0;fillColor=none;top=0;left=0;bottom=0;right=0;editable=1;overflow=hidden;whiteSpace=wrap;html=1;strokeColor=#FFFFFF;fontColor=#FFFFFF;" parent="289" vertex="1">
                    <mxGeometry width="30" height="30" as="geometry">
                        <mxRectangle width="30" height="30" as="alternateBounds"/>
                    </mxGeometry>
                </mxCell>
                <mxCell id="291" value="title_rating" style="shape=partialRectangle;connectable=0;fillColor=none;top=0;left=0;bottom=0;right=0;align=left;spacingLeft=6;overflow=hidden;whiteSpace=wrap;html=1;strokeColor=#FFFFFF;fontColor=#FFFFFF;" parent="289" vertex="1">
                    <mxGeometry x="30" width="198.12" height="30" as="geometry">
                        <mxRectangle width="198.12" height="30" as="alternateBounds"/>
                    </mxGeometry>
                </mxCell>
                <mxCell id="295" value="" style="shape=tableRow;horizontal=0;startSize=0;swimlaneHead=0;swimlaneBody=0;fillColor=none;collapsible=0;dropTarget=0;points=[[0,0.5],[1,0.5]];portConstraint=eastwest;top=0;left=0;right=0;bottom=0;strokeColor=#FFFFFF;fontColor=#FFFFFF;" parent="266" vertex="1">
                    <mxGeometry y="275" width="228.12" height="30" as="geometry"/>
                </mxCell>
                <mxCell id="296" value="" style="shape=partialRectangle;connectable=0;fillColor=none;top=0;left=0;bottom=0;right=0;editable=1;overflow=hidden;whiteSpace=wrap;html=1;strokeColor=#FFFFFF;fontColor=#FFFFFF;" parent="295" vertex="1">
                    <mxGeometry width="30" height="30" as="geometry">
                        <mxRectangle width="30" height="30" as="alternateBounds"/>
                    </mxGeometry>
                </mxCell>
                <mxCell id="297" value="title_numvot_imdb" style="shape=partialRectangle;connectable=0;fillColor=none;top=0;left=0;bottom=0;right=0;align=left;spacingLeft=6;overflow=hidden;whiteSpace=wrap;html=1;strokeColor=#FFFFFF;fontColor=#FFFFFF;" parent="295" vertex="1">
                    <mxGeometry x="30" width="198.12" height="30" as="geometry">
                        <mxRectangle width="198.12" height="30" as="alternateBounds"/>
                    </mxGeometry>
                </mxCell>
                <mxCell id="299" value="dim_subscriptions" style="shape=table;startSize=30;container=1;collapsible=1;childLayout=tableLayout;fixedRows=1;rowLines=0;fontStyle=1;align=center;resizeLast=1;html=1;strokeColor=#FFFFFF;fontColor=#1A1A1A;" parent="1" vertex="1">
                    <mxGeometry x="2130" y="430" width="248.12" height="160" as="geometry"/>
                </mxCell>
                <mxCell id="300" value="" style="shape=tableRow;horizontal=0;startSize=0;swimlaneHead=0;swimlaneBody=0;fillColor=none;collapsible=0;dropTarget=0;points=[[0,0.5],[1,0.5]];portConstraint=eastwest;top=0;left=0;right=0;bottom=1;strokeColor=#FFFFFF;fontColor=#FFFFFF;" parent="299" vertex="1">
                    <mxGeometry y="30" width="248.12" height="40" as="geometry"/>
                </mxCell>
                <mxCell id="301" value="PK" style="shape=partialRectangle;connectable=0;fillColor=none;top=0;left=0;bottom=0;right=0;fontStyle=1;overflow=hidden;whiteSpace=wrap;html=1;strokeColor=#FFFFFF;fontColor=#FFFFFF;" parent="300" vertex="1">
                    <mxGeometry width="30" height="40" as="geometry">
                        <mxRectangle width="30" height="40" as="alternateBounds"/>
                    </mxGeometry>
                </mxCell>
                <mxCell id="302" value="id_subscription" style="shape=partialRectangle;connectable=0;fillColor=none;top=0;left=0;bottom=0;right=0;align=left;spacingLeft=6;fontStyle=5;overflow=hidden;whiteSpace=wrap;html=1;strokeColor=#FFFFFF;fontColor=#FFFFFF;" parent="300" vertex="1">
                    <mxGeometry x="30" width="218.12" height="40" as="geometry">
                        <mxRectangle width="218.12" height="40" as="alternateBounds"/>
                    </mxGeometry>
                </mxCell>
                <mxCell id="303" value="" style="shape=tableRow;horizontal=0;startSize=0;swimlaneHead=0;swimlaneBody=0;fillColor=none;collapsible=0;dropTarget=0;points=[[0,0.5],[1,0.5]];portConstraint=eastwest;top=0;left=0;right=0;bottom=0;strokeColor=#FFFFFF;fontColor=#FFFFFF;" parent="299" vertex="1">
                    <mxGeometry y="70" width="248.12" height="30" as="geometry"/>
                </mxCell>
                <mxCell id="304" value="" style="shape=partialRectangle;connectable=0;fillColor=none;top=0;left=0;bottom=0;right=0;editable=1;overflow=hidden;whiteSpace=wrap;html=1;strokeColor=#FFFFFF;fontColor=#FFFFFF;" parent="303" vertex="1">
                    <mxGeometry width="30" height="30" as="geometry">
                        <mxRectangle width="30" height="30" as="alternateBounds"/>
                    </mxGeometry>
                </mxCell>
                <mxCell id="305" value="subscription_name&lt;span style=&quot;white-space: pre;&quot;&gt;&#x9;&lt;/span&gt;" style="shape=partialRectangle;connectable=0;fillColor=none;top=0;left=0;bottom=0;right=0;align=left;spacingLeft=6;overflow=hidden;whiteSpace=wrap;html=1;strokeColor=#FFFFFF;fontColor=#FFFFFF;" parent="303" vertex="1">
                    <mxGeometry x="30" width="218.12" height="30" as="geometry">
                        <mxRectangle width="218.12" height="30" as="alternateBounds"/>
                    </mxGeometry>
                </mxCell>
                <mxCell id="306" value="" style="shape=tableRow;horizontal=0;startSize=0;swimlaneHead=0;swimlaneBody=0;fillColor=none;collapsible=0;dropTarget=0;points=[[0,0.5],[1,0.5]];portConstraint=eastwest;top=0;left=0;right=0;bottom=0;strokeColor=#FFFFFF;fontColor=#FFFFFF;" parent="299" vertex="1">
                    <mxGeometry y="100" width="248.12" height="30" as="geometry"/>
                </mxCell>
                <mxCell id="307" value="" style="shape=partialRectangle;connectable=0;fillColor=none;top=0;left=0;bottom=0;right=0;editable=1;overflow=hidden;whiteSpace=wrap;html=1;strokeColor=#FFFFFF;fontColor=#FFFFFF;" parent="306" vertex="1">
                    <mxGeometry width="30" height="30" as="geometry">
                        <mxRectangle width="30" height="30" as="alternateBounds"/>
                    </mxGeometry>
                </mxCell>
                <mxCell id="308" value="subscription_price" style="shape=partialRectangle;connectable=0;fillColor=none;top=0;left=0;bottom=0;right=0;align=left;spacingLeft=6;overflow=hidden;whiteSpace=wrap;html=1;strokeColor=#FFFFFF;fontColor=#FFFFFF;" parent="306" vertex="1">
                    <mxGeometry x="30" width="218.12" height="30" as="geometry">
                        <mxRectangle width="218.12" height="30" as="alternateBounds"/>
                    </mxGeometry>
                </mxCell>
                <mxCell id="309" value="" style="shape=tableRow;horizontal=0;startSize=0;swimlaneHead=0;swimlaneBody=0;fillColor=none;collapsible=0;dropTarget=0;points=[[0,0.5],[1,0.5]];portConstraint=eastwest;top=0;left=0;right=0;bottom=0;strokeColor=#FFFFFF;fontColor=#FFFFFF;" parent="299" vertex="1">
                    <mxGeometry y="130" width="248.12" height="30" as="geometry"/>
                </mxCell>
                <mxCell id="310" value="" style="shape=partialRectangle;connectable=0;fillColor=none;top=0;left=0;bottom=0;right=0;editable=1;overflow=hidden;whiteSpace=wrap;html=1;strokeColor=#FFFFFF;fontColor=#FFFFFF;" parent="309" vertex="1">
                    <mxGeometry width="30" height="30" as="geometry">
                        <mxRectangle width="30" height="30" as="alternateBounds"/>
                    </mxGeometry>
                </mxCell>
                <mxCell id="311" value="subscription_currency_code" style="shape=partialRectangle;connectable=0;fillColor=none;top=0;left=0;bottom=0;right=0;align=left;spacingLeft=6;overflow=hidden;whiteSpace=wrap;html=1;strokeColor=#FFFFFF;fontColor=#FFFFFF;" parent="309" vertex="1">
                    <mxGeometry x="30" width="218.12" height="30" as="geometry">
                        <mxRectangle width="218.12" height="30" as="alternateBounds"/>
                    </mxGeometry>
                </mxCell>
                <mxCell id="313" value="" style="edgeStyle=entityRelationEdgeStyle;fontSize=12;html=1;endArrow=manyOptional;endFill=1;startArrow=none;rounded=0;startFill=0;exitX=0;exitY=0.5;exitDx=0;exitDy=0;entryX=0.998;entryY=0.717;entryDx=0;entryDy=0;entryPerimeter=0;" parent="1" source="267" target="215" edge="1">
                    <mxGeometry width="60" height="60" relative="1" as="geometry">
                        <mxPoint x="1830" y="520" as="sourcePoint"/>
                        <mxPoint x="1890" y="460" as="targetPoint"/>
                        <Array as="points">
                            <mxPoint x="2040" y="540"/>
                        </Array>
                    </mxGeometry>
                </mxCell>
                <mxCell id="316" value="" style="edgeStyle=entityRelationEdgeStyle;fontSize=12;html=1;endArrow=manyOptional;endFill=1;startArrow=none;rounded=0;startFill=0;exitX=0;exitY=0.5;exitDx=0;exitDy=0;" parent="1" source="239" target="212" edge="1">
                    <mxGeometry width="60" height="60" relative="1" as="geometry">
                        <mxPoint x="1870" y="520" as="sourcePoint"/>
                        <mxPoint x="1930" y="460" as="targetPoint"/>
                    </mxGeometry>
                </mxCell>
                <mxCell id="317" value="" style="edgeStyle=entityRelationEdgeStyle;fontSize=12;html=1;endArrow=manyOptional;endFill=1;startArrow=none;rounded=0;startFill=0;entryX=1;entryY=0.5;entryDx=0;entryDy=0;" parent="1" target="233" edge="1">
                    <mxGeometry width="60" height="60" relative="1" as="geometry">
                        <mxPoint x="2380" y="480" as="sourcePoint"/>
                        <mxPoint x="1680" y="640" as="targetPoint"/>
                    </mxGeometry>
                </mxCell>
                <mxCell id="318" value="dim_regions" style="shape=table;startSize=30;container=1;collapsible=1;childLayout=tableLayout;fixedRows=1;rowLines=0;fontStyle=1;align=center;resizeLast=1;html=1;strokeColor=#FFFFFF;fontColor=#1A1A1A;" parent="1" vertex="1">
                    <mxGeometry x="1340" y="735" width="248.12" height="100" as="geometry"/>
                </mxCell>
                <mxCell id="319" value="" style="shape=tableRow;horizontal=0;startSize=0;swimlaneHead=0;swimlaneBody=0;fillColor=none;collapsible=0;dropTarget=0;points=[[0,0.5],[1,0.5]];portConstraint=eastwest;top=0;left=0;right=0;bottom=1;strokeColor=#FFFFFF;fontColor=#FFFFFF;" parent="318" vertex="1">
                    <mxGeometry y="30" width="248.12" height="40" as="geometry"/>
                </mxCell>
                <mxCell id="320" value="PK" style="shape=partialRectangle;connectable=0;fillColor=none;top=0;left=0;bottom=0;right=0;fontStyle=1;overflow=hidden;whiteSpace=wrap;html=1;strokeColor=#FFFFFF;fontColor=#FFFFFF;" parent="319" vertex="1">
                    <mxGeometry width="30" height="40" as="geometry">
                        <mxRectangle width="30" height="40" as="alternateBounds"/>
                    </mxGeometry>
                </mxCell>
                <mxCell id="321" value="id_region" style="shape=partialRectangle;connectable=0;fillColor=none;top=0;left=0;bottom=0;right=0;align=left;spacingLeft=6;fontStyle=5;overflow=hidden;whiteSpace=wrap;html=1;strokeColor=#FFFFFF;fontColor=#FFFFFF;" parent="319" vertex="1">
                    <mxGeometry x="30" width="218.12" height="40" as="geometry">
                        <mxRectangle width="218.12" height="40" as="alternateBounds"/>
                    </mxGeometry>
                </mxCell>
                <mxCell id="322" value="" style="shape=tableRow;horizontal=0;startSize=0;swimlaneHead=0;swimlaneBody=0;fillColor=none;collapsible=0;dropTarget=0;points=[[0,0.5],[1,0.5]];portConstraint=eastwest;top=0;left=0;right=0;bottom=0;strokeColor=#FFFFFF;fontColor=#FFFFFF;" parent="318" vertex="1">
                    <mxGeometry y="70" width="248.12" height="30" as="geometry"/>
                </mxCell>
                <mxCell id="323" value="" style="shape=partialRectangle;connectable=0;fillColor=none;top=0;left=0;bottom=0;right=0;editable=1;overflow=hidden;whiteSpace=wrap;html=1;strokeColor=#FFFFFF;fontColor=#FFFFFF;" parent="322" vertex="1">
                    <mxGeometry width="30" height="30" as="geometry">
                        <mxRectangle width="30" height="30" as="alternateBounds"/>
                    </mxGeometry>
                </mxCell>
                <mxCell id="324" value="region_name" style="shape=partialRectangle;connectable=0;fillColor=none;top=0;left=0;bottom=0;right=0;align=left;spacingLeft=6;overflow=hidden;whiteSpace=wrap;html=1;strokeColor=#FFFFFF;fontColor=#FFFFFF;" parent="322" vertex="1">
                    <mxGeometry x="30" width="218.12" height="30" as="geometry">
                        <mxRectangle width="218.12" height="30" as="alternateBounds"/>
                    </mxGeometry>
                </mxCell>
                <mxCell id="331" value="" style="edgeStyle=entityRelationEdgeStyle;fontSize=12;html=1;endArrow=manyOptional;endFill=1;startArrow=none;rounded=0;startFill=0;exitX=1;exitY=0.5;exitDx=0;exitDy=0;entryX=0;entryY=0.5;entryDx=0;entryDy=0;" parent="1" source="319" target="230" edge="1">
                    <mxGeometry width="60" height="60" relative="1" as="geometry">
                        <mxPoint x="1640" y="630" as="sourcePoint"/>
                        <mxPoint x="1700" y="570" as="targetPoint"/>
                        <Array as="points">
                            <mxPoint x="1590" y="710"/>
                        </Array>
                    </mxGeometry>
                </mxCell>
                <mxCell id="333" style="edgeStyle=none;html=1;entryX=1;entryY=0.5;entryDx=0;entryDy=0;" parent="1" edge="1">
                    <mxGeometry relative="1" as="geometry">
                        <mxPoint x="4270" y="555.2702702702704" as="sourcePoint"/>
                        <mxPoint x="4270" y="565" as="targetPoint"/>
                    </mxGeometry>
                </mxCell>
                <mxCell id="334" value="dim_reactions" style="shape=table;startSize=30;container=1;collapsible=1;childLayout=tableLayout;fixedRows=1;rowLines=0;fontStyle=1;align=center;resizeLast=1;html=1;strokeColor=#FFFFFF;fontColor=#1A1A1A;" parent="1" vertex="1">
                    <mxGeometry x="1340" y="500" width="248.12" height="100" as="geometry"/>
                </mxCell>
                <mxCell id="335" value="" style="shape=tableRow;horizontal=0;startSize=0;swimlaneHead=0;swimlaneBody=0;fillColor=none;collapsible=0;dropTarget=0;points=[[0,0.5],[1,0.5]];portConstraint=eastwest;top=0;left=0;right=0;bottom=1;strokeColor=#FFFFFF;fontColor=#FFFFFF;" parent="334" vertex="1">
                    <mxGeometry y="30" width="248.12" height="40" as="geometry"/>
                </mxCell>
                <mxCell id="336" value="PK" style="shape=partialRectangle;connectable=0;fillColor=none;top=0;left=0;bottom=0;right=0;fontStyle=1;overflow=hidden;whiteSpace=wrap;html=1;strokeColor=#FFFFFF;fontColor=#FFFFFF;" parent="335" vertex="1">
                    <mxGeometry width="30" height="40" as="geometry">
                        <mxRectangle width="30" height="40" as="alternateBounds"/>
                    </mxGeometry>
                </mxCell>
                <mxCell id="337" value="id_region" style="shape=partialRectangle;connectable=0;fillColor=none;top=0;left=0;bottom=0;right=0;align=left;spacingLeft=6;fontStyle=5;overflow=hidden;whiteSpace=wrap;html=1;strokeColor=#FFFFFF;fontColor=#FFFFFF;" parent="335" vertex="1">
                    <mxGeometry x="30" width="218.12" height="40" as="geometry">
                        <mxRectangle width="218.12" height="40" as="alternateBounds"/>
                    </mxGeometry>
                </mxCell>
                <mxCell id="338" value="" style="shape=tableRow;horizontal=0;startSize=0;swimlaneHead=0;swimlaneBody=0;fillColor=none;collapsible=0;dropTarget=0;points=[[0,0.5],[1,0.5]];portConstraint=eastwest;top=0;left=0;right=0;bottom=0;strokeColor=#FFFFFF;fontColor=#FFFFFF;" parent="334" vertex="1">
                    <mxGeometry y="70" width="248.12" height="30" as="geometry"/>
                </mxCell>
                <mxCell id="339" value="" style="shape=partialRectangle;connectable=0;fillColor=none;top=0;left=0;bottom=0;right=0;editable=1;overflow=hidden;whiteSpace=wrap;html=1;strokeColor=#FFFFFF;fontColor=#FFFFFF;" parent="338" vertex="1">
                    <mxGeometry width="30" height="30" as="geometry">
                        <mxRectangle width="30" height="30" as="alternateBounds"/>
                    </mxGeometry>
                </mxCell>
                <mxCell id="340" value="reaction_name" style="shape=partialRectangle;connectable=0;fillColor=none;top=0;left=0;bottom=0;right=0;align=left;spacingLeft=6;overflow=hidden;whiteSpace=wrap;html=1;strokeColor=#FFFFFF;fontColor=#FFFFFF;" parent="338" vertex="1">
                    <mxGeometry x="30" width="218.12" height="30" as="geometry">
                        <mxRectangle width="218.12" height="30" as="alternateBounds"/>
                    </mxGeometry>
                </mxCell>
                <mxCell id="341" value="" style="edgeStyle=entityRelationEdgeStyle;fontSize=12;html=1;endArrow=manyOptional;endFill=1;startArrow=none;rounded=0;startFill=0;exitX=1;exitY=0.5;exitDx=0;exitDy=0;entryX=0;entryY=0.5;entryDx=0;entryDy=0;" parent="1" source="335" target="227" edge="1">
                    <mxGeometry width="60" height="60" relative="1" as="geometry">
                        <mxPoint x="1598" y="795" as="sourcePoint"/>
                        <mxPoint x="1660" y="670" as="targetPoint"/>
                        <Array as="points">
                            <mxPoint x="1600" y="720"/>
                        </Array>
                    </mxGeometry>
                </mxCell>
                <mxCell id="348" value="cleaned_fact_table" style="shape=table;startSize=30;container=1;collapsible=1;childLayout=tableLayout;fixedRows=1;rowLines=0;fontStyle=1;align=center;resizeLast=1;html=1;strokeColor=#FFFFFF;fontColor=#1A1A1A;" vertex="1" parent="1">
                    <mxGeometry x="3120" y="280" width="248.12" height="310" as="geometry"/>
                </mxCell>
                <mxCell id="349" value="" style="shape=tableRow;horizontal=0;startSize=0;swimlaneHead=0;swimlaneBody=0;fillColor=none;collapsible=0;dropTarget=0;points=[[0,0.5],[1,0.5]];portConstraint=eastwest;top=0;left=0;right=0;bottom=1;strokeColor=#FFFFFF;fontColor=#FFFFFF;" vertex="1" parent="348">
                    <mxGeometry y="30" width="248.12" height="40" as="geometry"/>
                </mxCell>
                <mxCell id="350" value="PK" style="shape=partialRectangle;connectable=0;fillColor=none;top=0;left=0;bottom=0;right=0;fontStyle=1;overflow=hidden;whiteSpace=wrap;html=1;strokeColor=#FFFFFF;fontColor=#FFFFFF;" vertex="1" parent="349">
                    <mxGeometry width="30" height="40" as="geometry">
                        <mxRectangle width="30" height="40" as="alternateBounds"/>
                    </mxGeometry>
                </mxCell>
                <mxCell id="351" value="Log id&lt;span style=&quot;white-space: pre;&quot;&gt;&#x9;&lt;/span&gt;" style="shape=partialRectangle;connectable=0;fillColor=none;top=0;left=0;bottom=0;right=0;align=left;spacingLeft=6;fontStyle=5;overflow=hidden;whiteSpace=wrap;html=1;strokeColor=#FFFFFF;fontColor=#1A1A1A;" vertex="1" parent="349">
                    <mxGeometry x="30" width="218.12" height="40" as="geometry">
                        <mxRectangle width="218.12" height="40" as="alternateBounds"/>
                    </mxGeometry>
                </mxCell>
                <mxCell id="352" value="" style="shape=tableRow;horizontal=0;startSize=0;swimlaneHead=0;swimlaneBody=0;fillColor=none;collapsible=0;dropTarget=0;points=[[0,0.5],[1,0.5]];portConstraint=eastwest;top=0;left=0;right=0;bottom=0;strokeColor=#FFFFFF;fontColor=#FFFFFF;" vertex="1" parent="348">
                    <mxGeometry y="70" width="248.12" height="30" as="geometry"/>
                </mxCell>
                <mxCell id="353" value="FK" style="shape=partialRectangle;connectable=0;fillColor=none;top=0;left=0;bottom=0;right=0;editable=1;overflow=hidden;whiteSpace=wrap;html=1;strokeColor=#FFFFFF;fontColor=#1A1A1A;" vertex="1" parent="352">
                    <mxGeometry width="30" height="30" as="geometry">
                        <mxRectangle width="30" height="30" as="alternateBounds"/>
                    </mxGeometry>
                </mxCell>
                <mxCell id="354" value="id_user" style="shape=partialRectangle;connectable=0;fillColor=none;top=0;left=0;bottom=0;right=0;align=left;spacingLeft=6;overflow=hidden;whiteSpace=wrap;html=1;strokeColor=#FFFFFF;fontColor=#1A1A1A;" vertex="1" parent="352">
                    <mxGeometry x="30" width="218.12" height="30" as="geometry">
                        <mxRectangle width="218.12" height="30" as="alternateBounds"/>
                    </mxGeometry>
                </mxCell>
                <mxCell id="355" value="" style="shape=tableRow;horizontal=0;startSize=0;swimlaneHead=0;swimlaneBody=0;fillColor=none;collapsible=0;dropTarget=0;points=[[0,0.5],[1,0.5]];portConstraint=eastwest;top=0;left=0;right=0;bottom=0;strokeColor=#FFFFFF;fontColor=#FFFFFF;" vertex="1" parent="348">
                    <mxGeometry y="100" width="248.12" height="30" as="geometry"/>
                </mxCell>
                <mxCell id="356" value="&lt;span style=&quot;&quot;&gt;FK&lt;/span&gt;" style="shape=partialRectangle;connectable=0;fillColor=none;top=0;left=0;bottom=0;right=0;editable=1;overflow=hidden;whiteSpace=wrap;html=1;strokeColor=#FFFFFF;fontColor=#1A1A1A;" vertex="1" parent="355">
                    <mxGeometry width="30" height="30" as="geometry">
                        <mxRectangle width="30" height="30" as="alternateBounds"/>
                    </mxGeometry>
                </mxCell>
                <mxCell id="357" value="id_title" style="shape=partialRectangle;connectable=0;fillColor=none;top=0;left=0;bottom=0;right=0;align=left;spacingLeft=6;overflow=hidden;whiteSpace=wrap;html=1;strokeColor=#FFFFFF;fontColor=#1A1A1A;" vertex="1" parent="355">
                    <mxGeometry x="30" width="218.12" height="30" as="geometry">
                        <mxRectangle width="218.12" height="30" as="alternateBounds"/>
                    </mxGeometry>
                </mxCell>
                <mxCell id="358" value="" style="shape=tableRow;horizontal=0;startSize=0;swimlaneHead=0;swimlaneBody=0;fillColor=none;collapsible=0;dropTarget=0;points=[[0,0.5],[1,0.5]];portConstraint=eastwest;top=0;left=0;right=0;bottom=0;strokeColor=#FFFFFF;fontColor=#FFFFFF;" vertex="1" parent="348">
                    <mxGeometry y="130" width="248.12" height="30" as="geometry"/>
                </mxCell>
                <mxCell id="359" value="" style="shape=partialRectangle;connectable=0;fillColor=none;top=0;left=0;bottom=0;right=0;editable=1;overflow=hidden;whiteSpace=wrap;html=1;strokeColor=#FFFFFF;fontColor=#FFFFFF;" vertex="1" parent="358">
                    <mxGeometry width="30" height="30" as="geometry">
                        <mxRectangle width="30" height="30" as="alternateBounds"/>
                    </mxGeometry>
                </mxCell>
                <mxCell id="360" value="session_start" style="shape=partialRectangle;connectable=0;fillColor=none;top=0;left=0;bottom=0;right=0;align=left;spacingLeft=6;overflow=hidden;whiteSpace=wrap;html=1;strokeColor=#FFFFFF;fontColor=#1A1A1A;" vertex="1" parent="358">
                    <mxGeometry x="30" width="218.12" height="30" as="geometry">
                        <mxRectangle width="218.12" height="30" as="alternateBounds"/>
                    </mxGeometry>
                </mxCell>
                <mxCell id="361" value="" style="shape=tableRow;horizontal=0;startSize=0;swimlaneHead=0;swimlaneBody=0;fillColor=none;collapsible=0;dropTarget=0;points=[[0,0.5],[1,0.5]];portConstraint=eastwest;top=0;left=0;right=0;bottom=0;strokeColor=#FFFFFF;fontColor=#FFFFFF;" vertex="1" parent="348">
                    <mxGeometry y="160" width="248.12" height="30" as="geometry"/>
                </mxCell>
                <mxCell id="362" value="" style="shape=partialRectangle;connectable=0;fillColor=none;top=0;left=0;bottom=0;right=0;editable=1;overflow=hidden;whiteSpace=wrap;html=1;strokeColor=#FFFFFF;fontColor=#FFFFFF;" vertex="1" parent="361">
                    <mxGeometry width="30" height="30" as="geometry">
                        <mxRectangle width="30" height="30" as="alternateBounds"/>
                    </mxGeometry>
                </mxCell>
                <mxCell id="363" value="session_end" style="shape=partialRectangle;connectable=0;fillColor=none;top=0;left=0;bottom=0;right=0;align=left;spacingLeft=6;overflow=hidden;whiteSpace=wrap;html=1;strokeColor=#FFFFFF;fontColor=#1A1A1A;" vertex="1" parent="361">
                    <mxGeometry x="30" width="218.12" height="30" as="geometry">
                        <mxRectangle width="218.12" height="30" as="alternateBounds"/>
                    </mxGeometry>
                </mxCell>
                <mxCell id="364" value="" style="shape=tableRow;horizontal=0;startSize=0;swimlaneHead=0;swimlaneBody=0;fillColor=none;collapsible=0;dropTarget=0;points=[[0,0.5],[1,0.5]];portConstraint=eastwest;top=0;left=0;right=0;bottom=0;strokeColor=#FFFFFF;fontColor=#FFFFFF;" vertex="1" parent="348">
                    <mxGeometry y="190" width="248.12" height="30" as="geometry"/>
                </mxCell>
                <mxCell id="365" value="" style="shape=partialRectangle;connectable=0;fillColor=none;top=0;left=0;bottom=0;right=0;editable=1;overflow=hidden;whiteSpace=wrap;html=1;strokeColor=#FFFFFF;fontColor=#FFFFFF;" vertex="1" parent="364">
                    <mxGeometry width="30" height="30" as="geometry">
                        <mxRectangle width="30" height="30" as="alternateBounds"/>
                    </mxGeometry>
                </mxCell>
                <mxCell id="366" value="rating_given" style="shape=partialRectangle;connectable=0;fillColor=none;top=0;left=0;bottom=0;right=0;align=left;spacingLeft=6;overflow=hidden;whiteSpace=wrap;html=1;strokeColor=#FFFFFF;fontColor=#1A1A1A;" vertex="1" parent="364">
                    <mxGeometry x="30" width="218.12" height="30" as="geometry">
                        <mxRectangle width="218.12" height="30" as="alternateBounds"/>
                    </mxGeometry>
                </mxCell>
                <mxCell id="367" value="" style="shape=tableRow;horizontal=0;startSize=0;swimlaneHead=0;swimlaneBody=0;fillColor=none;collapsible=0;dropTarget=0;points=[[0,0.5],[1,0.5]];portConstraint=eastwest;top=0;left=0;right=0;bottom=0;strokeColor=#FFFFFF;fontColor=#FFFFFF;" vertex="1" parent="348">
                    <mxGeometry y="220" width="248.12" height="30" as="geometry"/>
                </mxCell>
                <mxCell id="368" value="" style="shape=partialRectangle;connectable=0;fillColor=none;top=0;left=0;bottom=0;right=0;editable=1;overflow=hidden;whiteSpace=wrap;html=1;strokeColor=#FFFFFF;fontColor=#FFFFFF;" vertex="1" parent="367">
                    <mxGeometry width="30" height="30" as="geometry">
                        <mxRectangle width="30" height="30" as="alternateBounds"/>
                    </mxGeometry>
                </mxCell>
                <mxCell id="369" value="id_reaction" style="shape=partialRectangle;connectable=0;fillColor=none;top=0;left=0;bottom=0;right=0;align=left;spacingLeft=6;overflow=hidden;whiteSpace=wrap;html=1;strokeColor=#FFFFFF;fontColor=#1A1A1A;" vertex="1" parent="367">
                    <mxGeometry x="30" width="218.12" height="30" as="geometry">
                        <mxRectangle width="218.12" height="30" as="alternateBounds"/>
                    </mxGeometry>
                </mxCell>
                <mxCell id="370" value="" style="shape=tableRow;horizontal=0;startSize=0;swimlaneHead=0;swimlaneBody=0;fillColor=none;collapsible=0;dropTarget=0;points=[[0,0.5],[1,0.5]];portConstraint=eastwest;top=0;left=0;right=0;bottom=0;strokeColor=#FFFFFF;fontColor=#FFFFFF;" vertex="1" parent="348">
                    <mxGeometry y="250" width="248.12" height="30" as="geometry"/>
                </mxCell>
                <mxCell id="371" value="" style="shape=partialRectangle;connectable=0;fillColor=none;top=0;left=0;bottom=0;right=0;editable=1;overflow=hidden;whiteSpace=wrap;html=1;strokeColor=#FFFFFF;fontColor=#FFFFFF;" vertex="1" parent="370">
                    <mxGeometry width="30" height="30" as="geometry">
                        <mxRectangle width="30" height="30" as="alternateBounds"/>
                    </mxGeometry>
                </mxCell>
                <mxCell id="372" value="id_region" style="shape=partialRectangle;connectable=0;fillColor=none;top=0;left=0;bottom=0;right=0;align=left;spacingLeft=6;overflow=hidden;whiteSpace=wrap;html=1;strokeColor=#FFFFFF;fontColor=#1A1A1A;" vertex="1" parent="370">
                    <mxGeometry x="30" width="218.12" height="30" as="geometry">
                        <mxRectangle width="218.12" height="30" as="alternateBounds"/>
                    </mxGeometry>
                </mxCell>
                <mxCell id="376" value="" style="shape=tableRow;horizontal=0;startSize=0;swimlaneHead=0;swimlaneBody=0;fillColor=none;collapsible=0;dropTarget=0;points=[[0,0.5],[1,0.5]];portConstraint=eastwest;top=0;left=0;right=0;bottom=0;strokeColor=#FFFFFF;fontColor=#FFFFFF;" vertex="1" parent="348">
                    <mxGeometry y="280" width="248.12" height="30" as="geometry"/>
                </mxCell>
                <mxCell id="377" value="" style="shape=partialRectangle;connectable=0;fillColor=none;top=0;left=0;bottom=0;right=0;editable=1;overflow=hidden;whiteSpace=wrap;html=1;strokeColor=#FFFFFF;fontColor=#FFFFFF;" vertex="1" parent="376">
                    <mxGeometry width="30" height="30" as="geometry">
                        <mxRectangle width="30" height="30" as="alternateBounds"/>
                    </mxGeometry>
                </mxCell>
                <mxCell id="378" value="region name" style="shape=partialRectangle;connectable=0;fillColor=none;top=0;left=0;bottom=0;right=0;align=left;spacingLeft=6;overflow=hidden;whiteSpace=wrap;html=1;strokeColor=#FFFFFF;fontColor=#1A1A1A;" vertex="1" parent="376">
                    <mxGeometry x="30" width="218.12" height="30" as="geometry">
                        <mxRectangle width="218.12" height="30" as="alternateBounds"/>
                    </mxGeometry>
                </mxCell>
                <mxCell id="379" value="" style="edgeStyle=entityRelationEdgeStyle;fontSize=12;html=1;endArrow=manyOptional;endFill=1;startArrow=none;rounded=0;startFill=0;entryX=0;entryY=0.167;entryDx=0;entryDy=0;entryPerimeter=0;" edge="1" parent="1" source="381" target="352">
                    <mxGeometry width="60" height="60" relative="1" as="geometry">
                        <mxPoint x="3390" y="380" as="sourcePoint"/>
                        <mxPoint x="3220" y="180" as="targetPoint"/>
                    </mxGeometry>
                </mxCell>
                <mxCell id="380" value="dim_users" style="shape=table;startSize=30;container=1;collapsible=1;childLayout=tableLayout;fixedRows=1;rowLines=0;fontStyle=1;align=center;resizeLast=1;html=1;strokeColor=#FFFFFF;fontColor=#1A1A1A;" vertex="1" parent="1">
                    <mxGeometry x="2810" y="110" width="250" height="370" as="geometry"/>
                </mxCell>
                <mxCell id="381" value="" style="shape=tableRow;horizontal=0;startSize=0;swimlaneHead=0;swimlaneBody=0;fillColor=none;collapsible=0;dropTarget=0;points=[[0,0.5],[1,0.5]];portConstraint=eastwest;top=0;left=0;right=0;bottom=1;strokeColor=#FFFFFF;fontColor=#FFFFFF;" vertex="1" parent="380">
                    <mxGeometry y="30" width="250" height="40" as="geometry"/>
                </mxCell>
                <mxCell id="382" value="PK" style="shape=partialRectangle;connectable=0;fillColor=none;top=0;left=0;bottom=0;right=0;fontStyle=1;overflow=hidden;whiteSpace=wrap;html=1;strokeColor=#FFFFFF;fontColor=light-dark(#030303, #121212);" vertex="1" parent="381">
                    <mxGeometry width="30" height="40" as="geometry">
                        <mxRectangle width="30" height="40" as="alternateBounds"/>
                    </mxGeometry>
                </mxCell>
                <mxCell id="383" value="id_user" style="shape=partialRectangle;connectable=0;fillColor=none;top=0;left=0;bottom=0;right=0;align=left;spacingLeft=6;fontStyle=5;overflow=hidden;whiteSpace=wrap;html=1;strokeColor=#FFFFFF;fontColor=#1A1A1A;" vertex="1" parent="381">
                    <mxGeometry x="30" width="220" height="40" as="geometry">
                        <mxRectangle width="220" height="40" as="alternateBounds"/>
                    </mxGeometry>
                </mxCell>
                <mxCell id="384" value="" style="shape=tableRow;horizontal=0;startSize=0;swimlaneHead=0;swimlaneBody=0;fillColor=none;collapsible=0;dropTarget=0;points=[[0,0.5],[1,0.5]];portConstraint=eastwest;top=0;left=0;right=0;bottom=0;strokeColor=#FFFFFF;fontColor=#FFFFFF;" vertex="1" parent="380">
                    <mxGeometry y="70" width="250" height="30" as="geometry"/>
                </mxCell>
                <mxCell id="385" value="" style="shape=partialRectangle;connectable=0;fillColor=none;top=0;left=0;bottom=0;right=0;editable=1;overflow=hidden;whiteSpace=wrap;html=1;strokeColor=#FFFFFF;fontColor=#FFFFFF;" vertex="1" parent="384">
                    <mxGeometry width="30" height="30" as="geometry">
                        <mxRectangle width="30" height="30" as="alternateBounds"/>
                    </mxGeometry>
                </mxCell>
                <mxCell id="386" value="first_name&lt;span style=&quot;white-space: pre;&quot;&gt;&#x9;&lt;/span&gt;" style="shape=partialRectangle;connectable=0;fillColor=none;top=0;left=0;bottom=0;right=0;align=left;spacingLeft=6;overflow=hidden;whiteSpace=wrap;html=1;strokeColor=#FFFFFF;fontColor=#1A1A1A;" vertex="1" parent="384">
                    <mxGeometry x="30" width="220" height="30" as="geometry">
                        <mxRectangle width="220" height="30" as="alternateBounds"/>
                    </mxGeometry>
                </mxCell>
                <mxCell id="387" value="" style="shape=tableRow;horizontal=0;startSize=0;swimlaneHead=0;swimlaneBody=0;fillColor=none;collapsible=0;dropTarget=0;points=[[0,0.5],[1,0.5]];portConstraint=eastwest;top=0;left=0;right=0;bottom=0;strokeColor=#FFFFFF;fontColor=#FFFFFF;" vertex="1" parent="380">
                    <mxGeometry y="100" width="250" height="30" as="geometry"/>
                </mxCell>
                <mxCell id="388" value="" style="shape=partialRectangle;connectable=0;fillColor=none;top=0;left=0;bottom=0;right=0;editable=1;overflow=hidden;whiteSpace=wrap;html=1;strokeColor=#FFFFFF;fontColor=#FFFFFF;" vertex="1" parent="387">
                    <mxGeometry width="30" height="30" as="geometry">
                        <mxRectangle width="30" height="30" as="alternateBounds"/>
                    </mxGeometry>
                </mxCell>
                <mxCell id="389" value="last_name" style="shape=partialRectangle;connectable=0;fillColor=none;top=0;left=0;bottom=0;right=0;align=left;spacingLeft=6;overflow=hidden;whiteSpace=wrap;html=1;strokeColor=#FFFFFF;fontColor=#1A1A1A;" vertex="1" parent="387">
                    <mxGeometry x="30" width="220" height="30" as="geometry">
                        <mxRectangle width="220" height="30" as="alternateBounds"/>
                    </mxGeometry>
                </mxCell>
                <mxCell id="399" value="" style="shape=tableRow;horizontal=0;startSize=0;swimlaneHead=0;swimlaneBody=0;fillColor=none;collapsible=0;dropTarget=0;points=[[0,0.5],[1,0.5]];portConstraint=eastwest;top=0;left=0;right=0;bottom=0;strokeColor=#FFFFFF;fontColor=#FFFFFF;" vertex="1" parent="380">
                    <mxGeometry y="130" width="250" height="30" as="geometry"/>
                </mxCell>
                <mxCell id="400" value="" style="shape=partialRectangle;connectable=0;fillColor=none;top=0;left=0;bottom=0;right=0;editable=1;overflow=hidden;whiteSpace=wrap;html=1;strokeColor=#FFFFFF;fontColor=#FFFFFF;" vertex="1" parent="399">
                    <mxGeometry width="30" height="30" as="geometry">
                        <mxRectangle width="30" height="30" as="alternateBounds"/>
                    </mxGeometry>
                </mxCell>
                <mxCell id="401" value="iban" style="shape=partialRectangle;connectable=0;fillColor=none;top=0;left=0;bottom=0;right=0;align=left;spacingLeft=6;overflow=hidden;whiteSpace=wrap;html=1;strokeColor=#FFFFFF;fontColor=#1A1A1A;" vertex="1" parent="399">
                    <mxGeometry x="30" width="220" height="30" as="geometry">
                        <mxRectangle width="220" height="30" as="alternateBounds"/>
                    </mxGeometry>
                </mxCell>
                <mxCell id="390" value="" style="shape=tableRow;horizontal=0;startSize=0;swimlaneHead=0;swimlaneBody=0;fillColor=none;collapsible=0;dropTarget=0;points=[[0,0.5],[1,0.5]];portConstraint=eastwest;top=0;left=0;right=0;bottom=0;strokeColor=#FFFFFF;fontColor=#FFFFFF;" vertex="1" parent="380">
                    <mxGeometry y="160" width="250" height="30" as="geometry"/>
                </mxCell>
                <mxCell id="391" value="" style="shape=partialRectangle;connectable=0;fillColor=none;top=0;left=0;bottom=0;right=0;editable=1;overflow=hidden;whiteSpace=wrap;html=1;strokeColor=#FFFFFF;fontColor=#FFFFFF;" vertex="1" parent="390">
                    <mxGeometry width="30" height="30" as="geometry">
                        <mxRectangle width="30" height="30" as="alternateBounds"/>
                    </mxGeometry>
                </mxCell>
                <mxCell id="392" value="birth_date" style="shape=partialRectangle;connectable=0;fillColor=none;top=0;left=0;bottom=0;right=0;align=left;spacingLeft=6;overflow=hidden;whiteSpace=wrap;html=1;strokeColor=#FFFFFF;fontColor=#1A1A1A;" vertex="1" parent="390">
                    <mxGeometry x="30" width="220" height="30" as="geometry">
                        <mxRectangle width="220" height="30" as="alternateBounds"/>
                    </mxGeometry>
                </mxCell>
                <mxCell id="393" value="" style="shape=tableRow;horizontal=0;startSize=0;swimlaneHead=0;swimlaneBody=0;fillColor=none;collapsible=0;dropTarget=0;points=[[0,0.5],[1,0.5]];portConstraint=eastwest;top=0;left=0;right=0;bottom=0;strokeColor=#FFFFFF;fontColor=#FFFFFF;" vertex="1" parent="380">
                    <mxGeometry y="190" width="250" height="30" as="geometry"/>
                </mxCell>
                <mxCell id="394" value="" style="shape=partialRectangle;connectable=0;fillColor=none;top=0;left=0;bottom=0;right=0;editable=1;overflow=hidden;whiteSpace=wrap;html=1;strokeColor=#FFFFFF;fontColor=#FFFFFF;" vertex="1" parent="393">
                    <mxGeometry width="30" height="30" as="geometry">
                        <mxRectangle width="30" height="30" as="alternateBounds"/>
                    </mxGeometry>
                </mxCell>
                <mxCell id="395" value="id_scubscription" style="shape=partialRectangle;connectable=0;fillColor=none;top=0;left=0;bottom=0;right=0;align=left;spacingLeft=6;overflow=hidden;whiteSpace=wrap;html=1;strokeColor=#FFFFFF;fontColor=#1A1A1A;" vertex="1" parent="393">
                    <mxGeometry x="30" width="220" height="30" as="geometry">
                        <mxRectangle width="220" height="30" as="alternateBounds"/>
                    </mxGeometry>
                </mxCell>
                <mxCell id="396" value="" style="shape=tableRow;horizontal=0;startSize=0;swimlaneHead=0;swimlaneBody=0;fillColor=none;collapsible=0;dropTarget=0;points=[[0,0.5],[1,0.5]];portConstraint=eastwest;top=0;left=0;right=0;bottom=0;strokeColor=#FFFFFF;fontColor=#FFFFFF;" vertex="1" parent="380">
                    <mxGeometry y="220" width="250" height="30" as="geometry"/>
                </mxCell>
                <mxCell id="397" value="" style="shape=partialRectangle;connectable=0;fillColor=none;top=0;left=0;bottom=0;right=0;editable=1;overflow=hidden;whiteSpace=wrap;html=1;strokeColor=#FFFFFF;fontColor=#FFFFFF;" vertex="1" parent="396">
                    <mxGeometry width="30" height="30" as="geometry">
                        <mxRectangle width="30" height="30" as="alternateBounds"/>
                    </mxGeometry>
                </mxCell>
                <mxCell id="398" value="subscription_start_date" style="shape=partialRectangle;connectable=0;fillColor=none;top=0;left=0;bottom=0;right=0;align=left;spacingLeft=6;overflow=hidden;whiteSpace=wrap;html=1;strokeColor=#FFFFFF;fontColor=#1A1A1A;" vertex="1" parent="396">
                    <mxGeometry x="30" width="220" height="30" as="geometry">
                        <mxRectangle width="220" height="30" as="alternateBounds"/>
                    </mxGeometry>
                </mxCell>
                <mxCell id="406" value="" style="shape=tableRow;horizontal=0;startSize=0;swimlaneHead=0;swimlaneBody=0;fillColor=none;collapsible=0;dropTarget=0;points=[[0,0.5],[1,0.5]];portConstraint=eastwest;top=0;left=0;right=0;bottom=0;strokeColor=#FFFFFF;fontColor=#FFFFFF;" vertex="1" parent="380">
                    <mxGeometry y="250" width="250" height="30" as="geometry"/>
                </mxCell>
                <mxCell id="407" value="" style="shape=partialRectangle;connectable=0;fillColor=none;top=0;left=0;bottom=0;right=0;editable=1;overflow=hidden;whiteSpace=wrap;html=1;strokeColor=#FFFFFF;fontColor=#FFFFFF;" vertex="1" parent="406">
                    <mxGeometry width="30" height="30" as="geometry">
                        <mxRectangle width="30" height="30" as="alternateBounds"/>
                    </mxGeometry>
                </mxCell>
                <mxCell id="408" value="subscription_name&lt;span style=&quot;white-space: pre;&quot;&gt;&#x9;&lt;/span&gt;" style="shape=partialRectangle;connectable=0;fillColor=none;top=0;left=0;bottom=0;right=0;align=left;spacingLeft=6;overflow=hidden;whiteSpace=wrap;html=1;strokeColor=#FFFFFF;fontColor=#1A1A1A;" vertex="1" parent="406">
                    <mxGeometry x="30" width="220" height="30" as="geometry">
                        <mxRectangle width="220" height="30" as="alternateBounds"/>
                    </mxGeometry>
                </mxCell>
                <mxCell id="409" value="" style="shape=tableRow;horizontal=0;startSize=0;swimlaneHead=0;swimlaneBody=0;fillColor=none;collapsible=0;dropTarget=0;points=[[0,0.5],[1,0.5]];portConstraint=eastwest;top=0;left=0;right=0;bottom=0;strokeColor=#FFFFFF;fontColor=#FFFFFF;" vertex="1" parent="380">
                    <mxGeometry y="280" width="250" height="30" as="geometry"/>
                </mxCell>
                <mxCell id="410" value="" style="shape=partialRectangle;connectable=0;fillColor=none;top=0;left=0;bottom=0;right=0;editable=1;overflow=hidden;whiteSpace=wrap;html=1;strokeColor=#FFFFFF;fontColor=#FFFFFF;" vertex="1" parent="409">
                    <mxGeometry width="30" height="30" as="geometry">
                        <mxRectangle width="30" height="30" as="alternateBounds"/>
                    </mxGeometry>
                </mxCell>
                <mxCell id="411" value="subscription_price" style="shape=partialRectangle;connectable=0;fillColor=none;top=0;left=0;bottom=0;right=0;align=left;spacingLeft=6;overflow=hidden;whiteSpace=wrap;html=1;strokeColor=#FFFFFF;fontColor=#1A1A1A;" vertex="1" parent="409">
                    <mxGeometry x="30" width="220" height="30" as="geometry">
                        <mxRectangle width="220" height="30" as="alternateBounds"/>
                    </mxGeometry>
                </mxCell>
                <mxCell id="412" value="" style="shape=tableRow;horizontal=0;startSize=0;swimlaneHead=0;swimlaneBody=0;fillColor=none;collapsible=0;dropTarget=0;points=[[0,0.5],[1,0.5]];portConstraint=eastwest;top=0;left=0;right=0;bottom=0;strokeColor=#FFFFFF;fontColor=#FFFFFF;" vertex="1" parent="380">
                    <mxGeometry y="310" width="250" height="30" as="geometry"/>
                </mxCell>
                <mxCell id="413" value="" style="shape=partialRectangle;connectable=0;fillColor=none;top=0;left=0;bottom=0;right=0;editable=1;overflow=hidden;whiteSpace=wrap;html=1;strokeColor=#FFFFFF;fontColor=#FFFFFF;" vertex="1" parent="412">
                    <mxGeometry width="30" height="30" as="geometry">
                        <mxRectangle width="30" height="30" as="alternateBounds"/>
                    </mxGeometry>
                </mxCell>
                <mxCell id="414" value="subscription_currency_code" style="shape=partialRectangle;connectable=0;fillColor=none;top=0;left=0;bottom=0;right=0;align=left;spacingLeft=6;overflow=hidden;whiteSpace=wrap;html=1;strokeColor=#FFFFFF;fontColor=#1A1A1A;" vertex="1" parent="412">
                    <mxGeometry x="30" width="220" height="30" as="geometry">
                        <mxRectangle width="220" height="30" as="alternateBounds"/>
                    </mxGeometry>
                </mxCell>
                <mxCell id="415" value="" style="shape=tableRow;horizontal=0;startSize=0;swimlaneHead=0;swimlaneBody=0;fillColor=none;collapsible=0;dropTarget=0;points=[[0,0.5],[1,0.5]];portConstraint=eastwest;top=0;left=0;right=0;bottom=0;strokeColor=#FFFFFF;fontColor=#FFFFFF;" vertex="1" parent="380">
                    <mxGeometry y="340" width="250" height="30" as="geometry"/>
                </mxCell>
                <mxCell id="416" value="" style="shape=partialRectangle;connectable=0;fillColor=none;top=0;left=0;bottom=0;right=0;editable=1;overflow=hidden;whiteSpace=wrap;html=1;strokeColor=#FFFFFF;fontColor=#FFFFFF;" vertex="1" parent="415">
                    <mxGeometry width="30" height="30" as="geometry">
                        <mxRectangle width="30" height="30" as="alternateBounds"/>
                    </mxGeometry>
                </mxCell>
                <mxCell id="417" value="discount_procentage" style="shape=partialRectangle;connectable=0;fillColor=none;top=0;left=0;bottom=0;right=0;align=left;spacingLeft=6;overflow=hidden;whiteSpace=wrap;html=1;strokeColor=#FFFFFF;fontColor=#1A1A1A;" vertex="1" parent="415">
                    <mxGeometry x="30" width="220" height="30" as="geometry">
                        <mxRectangle width="220" height="30" as="alternateBounds"/>
                    </mxGeometry>
                </mxCell>
                <mxCell id="418" value="dim_titles" style="shape=table;startSize=25;container=1;collapsible=1;childLayout=tableLayout;fixedRows=1;rowLines=0;fontStyle=1;align=center;resizeLast=1;html=1;strokeColor=#FFFFFF;fontColor=#1A1A1A;" vertex="1" parent="1">
                    <mxGeometry x="3420" y="350" width="228.12" height="310" as="geometry"/>
                </mxCell>
                <mxCell id="419" value="" style="shape=tableRow;horizontal=0;startSize=0;swimlaneHead=0;swimlaneBody=0;fillColor=none;collapsible=0;dropTarget=0;points=[[0,0.5],[1,0.5]];portConstraint=eastwest;top=0;left=0;right=0;bottom=1;strokeColor=#FFFFFF;fontColor=#FFFFFF;" vertex="1" parent="418">
                    <mxGeometry y="25" width="228.12" height="40" as="geometry"/>
                </mxCell>
                <mxCell id="420" value="PK" style="shape=partialRectangle;connectable=0;fillColor=none;top=0;left=0;bottom=0;right=0;fontStyle=1;overflow=hidden;whiteSpace=wrap;html=1;strokeColor=#FFFFFF;fontColor=#1A1A1A;" vertex="1" parent="419">
                    <mxGeometry width="30" height="40" as="geometry">
                        <mxRectangle width="30" height="40" as="alternateBounds"/>
                    </mxGeometry>
                </mxCell>
                <mxCell id="421" value="id_title" style="shape=partialRectangle;connectable=0;fillColor=none;top=0;left=0;bottom=0;right=0;align=left;spacingLeft=6;fontStyle=5;overflow=hidden;whiteSpace=wrap;html=1;strokeColor=#FFFFFF;fontColor=#1A1A1A;" vertex="1" parent="419">
                    <mxGeometry x="30" width="198.12" height="40" as="geometry">
                        <mxRectangle width="198.12" height="40" as="alternateBounds"/>
                    </mxGeometry>
                </mxCell>
                <mxCell id="422" value="" style="shape=tableRow;horizontal=0;startSize=0;swimlaneHead=0;swimlaneBody=0;fillColor=none;collapsible=0;dropTarget=0;points=[[0,0.5],[1,0.5]];portConstraint=eastwest;top=0;left=0;right=0;bottom=0;strokeColor=#FFFFFF;fontColor=#FFFFFF;" vertex="1" parent="418">
                    <mxGeometry y="65" width="228.12" height="30" as="geometry"/>
                </mxCell>
                <mxCell id="423" value="" style="shape=partialRectangle;connectable=0;fillColor=none;top=0;left=0;bottom=0;right=0;editable=1;overflow=hidden;whiteSpace=wrap;html=1;strokeColor=#FFFFFF;fontColor=#FFFFFF;" vertex="1" parent="422">
                    <mxGeometry width="30" height="30" as="geometry">
                        <mxRectangle width="30" height="30" as="alternateBounds"/>
                    </mxGeometry>
                </mxCell>
                <mxCell id="424" value="title_name" style="shape=partialRectangle;connectable=0;fillColor=none;top=0;left=0;bottom=0;right=0;align=left;spacingLeft=6;overflow=hidden;whiteSpace=wrap;html=1;strokeColor=#FFFFFF;fontColor=#1A1A1A;" vertex="1" parent="422">
                    <mxGeometry x="30" width="198.12" height="30" as="geometry">
                        <mxRectangle width="198.12" height="30" as="alternateBounds"/>
                    </mxGeometry>
                </mxCell>
                <mxCell id="425" value="" style="shape=tableRow;horizontal=0;startSize=0;swimlaneHead=0;swimlaneBody=0;fillColor=none;collapsible=0;dropTarget=0;points=[[0,0.5],[1,0.5]];portConstraint=eastwest;top=0;left=0;right=0;bottom=0;strokeColor=#FFFFFF;fontColor=#FFFFFF;" vertex="1" parent="418">
                    <mxGeometry y="95" width="228.12" height="30" as="geometry"/>
                </mxCell>
                <mxCell id="426" value="" style="shape=partialRectangle;connectable=0;fillColor=none;top=0;left=0;bottom=0;right=0;editable=1;overflow=hidden;whiteSpace=wrap;html=1;strokeColor=#FFFFFF;fontColor=#FFFFFF;" vertex="1" parent="425">
                    <mxGeometry width="30" height="30" as="geometry">
                        <mxRectangle width="30" height="30" as="alternateBounds"/>
                    </mxGeometry>
                </mxCell>
                <mxCell id="427" value="title_director_first_name" style="shape=partialRectangle;connectable=0;fillColor=none;top=0;left=0;bottom=0;right=0;align=left;spacingLeft=6;overflow=hidden;whiteSpace=wrap;html=1;strokeColor=#FFFFFF;fontColor=#1A1A1A;" vertex="1" parent="425">
                    <mxGeometry x="30" width="198.12" height="30" as="geometry">
                        <mxRectangle width="198.12" height="30" as="alternateBounds"/>
                    </mxGeometry>
                </mxCell>
                <mxCell id="428" value="" style="shape=tableRow;horizontal=0;startSize=0;swimlaneHead=0;swimlaneBody=0;fillColor=none;collapsible=0;dropTarget=0;points=[[0,0.5],[1,0.5]];portConstraint=eastwest;top=0;left=0;right=0;bottom=0;strokeColor=#FFFFFF;fontColor=#FFFFFF;" vertex="1" parent="418">
                    <mxGeometry y="125" width="228.12" height="30" as="geometry"/>
                </mxCell>
                <mxCell id="429" value="" style="shape=partialRectangle;connectable=0;fillColor=none;top=0;left=0;bottom=0;right=0;editable=1;overflow=hidden;whiteSpace=wrap;html=1;strokeColor=#FFFFFF;fontColor=#FFFFFF;" vertex="1" parent="428">
                    <mxGeometry width="30" height="30" as="geometry">
                        <mxRectangle width="30" height="30" as="alternateBounds"/>
                    </mxGeometry>
                </mxCell>
                <mxCell id="430" value="title_director_last_name" style="shape=partialRectangle;connectable=0;fillColor=none;top=0;left=0;bottom=0;right=0;align=left;spacingLeft=6;overflow=hidden;whiteSpace=wrap;html=1;strokeColor=#FFFFFF;fontColor=#1A1A1A;" vertex="1" parent="428">
                    <mxGeometry x="30" width="198.12" height="30" as="geometry">
                        <mxRectangle width="198.12" height="30" as="alternateBounds"/>
                    </mxGeometry>
                </mxCell>
                <mxCell id="431" value="" style="shape=tableRow;horizontal=0;startSize=0;swimlaneHead=0;swimlaneBody=0;fillColor=none;collapsible=0;dropTarget=0;points=[[0,0.5],[1,0.5]];portConstraint=eastwest;top=0;left=0;right=0;bottom=0;strokeColor=#FFFFFF;fontColor=#FFFFFF;" vertex="1" parent="418">
                    <mxGeometry y="155" width="228.12" height="30" as="geometry"/>
                </mxCell>
                <mxCell id="432" value="" style="shape=partialRectangle;connectable=0;fillColor=none;top=0;left=0;bottom=0;right=0;editable=1;overflow=hidden;whiteSpace=wrap;html=1;strokeColor=#FFFFFF;fontColor=#FFFFFF;" vertex="1" parent="431">
                    <mxGeometry width="30" height="30" as="geometry">
                        <mxRectangle width="30" height="30" as="alternateBounds"/>
                    </mxGeometry>
                </mxCell>
                <mxCell id="433" value="title_type" style="shape=partialRectangle;connectable=0;fillColor=none;top=0;left=0;bottom=0;right=0;align=left;spacingLeft=6;overflow=hidden;whiteSpace=wrap;html=1;strokeColor=#FFFFFF;fontColor=#1A1A1A;" vertex="1" parent="431">
                    <mxGeometry x="30" width="198.12" height="30" as="geometry">
                        <mxRectangle width="198.12" height="30" as="alternateBounds"/>
                    </mxGeometry>
                </mxCell>
                <mxCell id="434" value="" style="shape=tableRow;horizontal=0;startSize=0;swimlaneHead=0;swimlaneBody=0;fillColor=none;collapsible=0;dropTarget=0;points=[[0,0.5],[1,0.5]];portConstraint=eastwest;top=0;left=0;right=0;bottom=0;strokeColor=#FFFFFF;fontColor=#FFFFFF;" vertex="1" parent="418">
                    <mxGeometry y="185" width="228.12" height="30" as="geometry"/>
                </mxCell>
                <mxCell id="435" value="" style="shape=partialRectangle;connectable=0;fillColor=none;top=0;left=0;bottom=0;right=0;editable=1;overflow=hidden;whiteSpace=wrap;html=1;strokeColor=#FFFFFF;fontColor=#FFFFFF;" vertex="1" parent="434">
                    <mxGeometry width="30" height="30" as="geometry">
                        <mxRectangle width="30" height="30" as="alternateBounds"/>
                    </mxGeometry>
                </mxCell>
                <mxCell id="436" value="title_startYear" style="shape=partialRectangle;connectable=0;fillColor=none;top=0;left=0;bottom=0;right=0;align=left;spacingLeft=6;overflow=hidden;whiteSpace=wrap;html=1;strokeColor=#FFFFFF;fontColor=#1A1A1A;" vertex="1" parent="434">
                    <mxGeometry x="30" width="198.12" height="30" as="geometry">
                        <mxRectangle width="198.12" height="30" as="alternateBounds"/>
                    </mxGeometry>
                </mxCell>
                <mxCell id="437" value="" style="shape=tableRow;horizontal=0;startSize=0;swimlaneHead=0;swimlaneBody=0;fillColor=none;collapsible=0;dropTarget=0;points=[[0,0.5],[1,0.5]];portConstraint=eastwest;top=0;left=0;right=0;bottom=0;strokeColor=#FFFFFF;fontColor=#FFFFFF;" vertex="1" parent="418">
                    <mxGeometry y="215" width="228.12" height="30" as="geometry"/>
                </mxCell>
                <mxCell id="438" value="" style="shape=partialRectangle;connectable=0;fillColor=none;top=0;left=0;bottom=0;right=0;editable=1;overflow=hidden;whiteSpace=wrap;html=1;strokeColor=#FFFFFF;fontColor=#FFFFFF;" vertex="1" parent="437">
                    <mxGeometry width="30" height="30" as="geometry">
                        <mxRectangle width="30" height="30" as="alternateBounds"/>
                    </mxGeometry>
                </mxCell>
                <mxCell id="439" value="title_duration" style="shape=partialRectangle;connectable=0;fillColor=none;top=0;left=0;bottom=0;right=0;align=left;spacingLeft=6;overflow=hidden;whiteSpace=wrap;html=1;strokeColor=#FFFFFF;fontColor=#1A1A1A;" vertex="1" parent="437">
                    <mxGeometry x="30" width="198.12" height="30" as="geometry">
                        <mxRectangle width="198.12" height="30" as="alternateBounds"/>
                    </mxGeometry>
                </mxCell>
                <mxCell id="440" value="" style="shape=tableRow;horizontal=0;startSize=0;swimlaneHead=0;swimlaneBody=0;fillColor=none;collapsible=0;dropTarget=0;points=[[0,0.5],[1,0.5]];portConstraint=eastwest;top=0;left=0;right=0;bottom=0;strokeColor=#FFFFFF;fontColor=#FFFFFF;" vertex="1" parent="418">
                    <mxGeometry y="245" width="228.12" height="30" as="geometry"/>
                </mxCell>
                <mxCell id="441" value="" style="shape=partialRectangle;connectable=0;fillColor=none;top=0;left=0;bottom=0;right=0;editable=1;overflow=hidden;whiteSpace=wrap;html=1;strokeColor=#FFFFFF;fontColor=#FFFFFF;" vertex="1" parent="440">
                    <mxGeometry width="30" height="30" as="geometry">
                        <mxRectangle width="30" height="30" as="alternateBounds"/>
                    </mxGeometry>
                </mxCell>
                <mxCell id="442" value="title_rating" style="shape=partialRectangle;connectable=0;fillColor=none;top=0;left=0;bottom=0;right=0;align=left;spacingLeft=6;overflow=hidden;whiteSpace=wrap;html=1;strokeColor=#FFFFFF;fontColor=#1A1A1A;" vertex="1" parent="440">
                    <mxGeometry x="30" width="198.12" height="30" as="geometry">
                        <mxRectangle width="198.12" height="30" as="alternateBounds"/>
                    </mxGeometry>
                </mxCell>
                <mxCell id="443" value="" style="shape=tableRow;horizontal=0;startSize=0;swimlaneHead=0;swimlaneBody=0;fillColor=none;collapsible=0;dropTarget=0;points=[[0,0.5],[1,0.5]];portConstraint=eastwest;top=0;left=0;right=0;bottom=0;strokeColor=#FFFFFF;fontColor=#FFFFFF;" vertex="1" parent="418">
                    <mxGeometry y="275" width="228.12" height="30" as="geometry"/>
                </mxCell>
                <mxCell id="444" value="" style="shape=partialRectangle;connectable=0;fillColor=none;top=0;left=0;bottom=0;right=0;editable=1;overflow=hidden;whiteSpace=wrap;html=1;strokeColor=#FFFFFF;fontColor=#FFFFFF;" vertex="1" parent="443">
                    <mxGeometry width="30" height="30" as="geometry">
                        <mxRectangle width="30" height="30" as="alternateBounds"/>
                    </mxGeometry>
                </mxCell>
                <mxCell id="445" value="title_numvot_imdb" style="shape=partialRectangle;connectable=0;fillColor=none;top=0;left=0;bottom=0;right=0;align=left;spacingLeft=6;overflow=hidden;whiteSpace=wrap;html=1;strokeColor=#FFFFFF;fontColor=#1A1A1A;" vertex="1" parent="443">
                    <mxGeometry x="30" width="198.12" height="30" as="geometry">
                        <mxRectangle width="198.12" height="30" as="alternateBounds"/>
                    </mxGeometry>
                </mxCell>
                <mxCell id="446" value="" style="edgeStyle=entityRelationEdgeStyle;fontSize=12;html=1;endArrow=manyOptional;endFill=1;startArrow=none;rounded=0;startFill=0;exitX=0;exitY=0.5;exitDx=0;exitDy=0;" edge="1" parent="1" source="419" target="355">
                    <mxGeometry width="60" height="60" relative="1" as="geometry">
                        <mxPoint x="3338" y="204" as="sourcePoint"/>
                        <mxPoint x="3215" y="609" as="targetPoint"/>
                        <Array as="points">
                            <mxPoint x="3510" y="630"/>
                        </Array>
                    </mxGeometry>
                </mxCell>
                <mxCell id="450" value="&lt;font style=&quot;font-size: 45px;&quot;&gt;Other views depending on Business Context&lt;/font&gt;" style="text;html=1;align=center;verticalAlign=middle;whiteSpace=wrap;rounded=0;" vertex="1" parent="1">
                    <mxGeometry x="3130" y="730" width="250" height="250" as="geometry"/>
                </mxCell>
            </root>
        </mxGraphModel>
    </diagram>
</mxfile>